<?xml version="1.0" encoding="utf-8"?>
<!-- Generator: Adobe Illustrator 18.0.0, SVG Export Plug-In . SVG Version: 6.00 Build 0)  -->
<!DOCTYPE svg PUBLIC "-//W3C//DTD SVG 1.1//EN" "http://www.w3.org/Graphics/SVG/1.1/DTD/svg11.dtd">
<svg version="1.1"
	 id="Layer_1" image-rendering="optimizeQuality" text-rendering="geometricPrecision" shape-rendering="geometricPrecision"
	 xmlns="http://www.w3.org/2000/svg" xmlns:xlink="http://www.w3.org/1999/xlink" x="0px" y="0px" width="16px" height="16px"
	 viewBox="1267 1642 16 16" enable-background="new 1267 1642 16 16" xml:space="preserve">
<g>
	<g id="Layer_x0020_1_1_">
		<g id="_313634056_1_">
			<path fill="#E8E7E5" d="M1271.7,1651h6.7v3.3c0,1.8-1.5,3.4-3.4,3.4l0,0c-1.8,0-3.3-1.5-3.3-3.4V1651z"/>
			<path fill="#CECDCC" d="M1276.7,1651h1.7v3.3c0,1.8-1.5,3.4-3.4,3.4l0,0c-0.3,0-0.6,0-0.8-0.1c1.4-0.4,2.5-1.7,2.5-3.2V1651z
				 M1275,1657.7L1275,1657.7z"/>
			<path fill="#FEFEFE" d="M1272.2,1654.4v-3.3h-0.6v3.3c0,0,0,0.1,0,0.1c0,0,0,0.1,0,0.1c0,0,0,0.1,0,0.1c0,0,0,0.1,0,0.1
				c0,0,0,0.1,0,0.1c0,0,0,0.1,0,0.1l0,0c0,0,0,0.1,0,0.1c0,0,0,0.1,0,0.1c0,0,0,0.1,0,0.1l0,0c0,0,0,0,0,0.1c0,0,0,0.1,0,0.1
				c0,0,0,0,0,0.1l0,0c0,0,0,0,0,0.1c0,0,0,0,0,0.1l0,0c0,0,0,0.1,0,0.1l0,0c0,0,0,0.1,0,0.1l0,0c0,0,0,0,0,0.1l0,0c0,0,0,0,0,0.1
				l0,0c0,0,0,0,0,0.1l0,0c0,0,0,0,0,0.1l0,0c0,0,0,0,0,0.1l0,0c0,0,0,0,0,0.1l0,0c0,0,0,0,0,0.1l0,0c0,0,0,0,0,0.1l0,0
				c0,0,0,0,0,0.1l0,0c0,0,0,0,0,0.1l0,0c0,0,0,0,0,0.1l0,0c0,0,0,0,0,0.1l0,0c0,0,0,0,0.1,0.1l0,0c0,0,0,0,0,0.1l0,0
				c0,0,0,0,0.1,0.1l0,0c0,0,0,0,0.1,0.1l0,0c0,0,0,0,0.1,0.1l0,0c0,0,0,0,0.1,0.1l0,0c0,0,0,0,0.1,0.1l0,0c0,0,0,0,0.1,0l0,0
				c0,0,0,0,0.1,0l0,0c0,0,0,0,0.1,0.1l0,0c0,0,0,0,0.1,0c0.6,0.4,1.2,0.6,1.9,0.6l0,0l0,0c0,0,0.1,0,0.1,0h0c0,0,0,0,0.1,0h0
				c0,0,0.1,0,0.1,0C1273.6,1657.6,1272.2,1656.1,1272.2,1654.4z"/>
			<path fill="#E8E7E5" d="M1273.1,1651h3.8v-5.9c0-1.1-0.9-1.9-1.9-1.9l0,0c-1.1,0-1.9,0.9-1.9,1.9V1651z"/>
			<path fill="#CECDCC" d="M1276.9,1651v-5.9c0-0.5-0.2-1-0.5-1.3l0,0c0,0,0,0-0.1-0.1l0,0c-0.3-0.3-0.8-0.5-1.3-0.5l0,0
				c-0.2,0-0.3,0-0.4,0l0,0c0,0,0,0,0,0h0c0,0,0,0,0,0l0,0c0,0,0,0,0,0h0l0,0c0.8,0.3,1.3,1,1.3,1.8v5.9H1276.9z"/>
			<path fill="#FEFEFE" d="M1273.7,1651v-5.9c0-1,0.7-1.8,1.6-1.9c0,0,0,0,0,0l0,0c0,0,0,0,0,0l0,0l0,0l0,0c0,0,0,0,0,0l0,0l0,0
				c0,0,0,0,0,0l0,0l0,0c0,0,0,0,0,0l0,0l0,0c0,0,0,0,0,0l0,0c-1.1,0-1.9,0.9-1.9,1.9v0.6v2.8v2.4H1273.7z"/>
			<polygon fill="#E8E7E5" points="1271.7,1651.5 1269.9,1651.5 1269.9,1655.9 1271.7,1655.9 			"/>
			<polygon fill="#E8E7E5" points="1280.1,1651.5 1278.4,1651.5 1278.4,1655.9 1280.1,1655.9 			"/>
			<path fill="#9CD8F6" d="M1269.9,1655.9h-1.1v-5.3c0-0.3,0.3-0.6,0.6-0.6l0,0c0.3,0,0.6,0.3,0.6,0.6V1655.9z"/>
			<path fill="#9CD8F6" d="M1281.2,1655.9h-1.1v-5.3c0-0.3,0.3-0.6,0.6-0.6l0,0c0.3,0,0.6,0.3,0.6,0.6V1655.9z"/>
			<polygon fill="#F16650" points="1273.1,1645.4 1271.6,1646.4 1271.6,1648.6 1273.1,1648.6 			"/>
			<polygon fill="#F16650" points="1276.9,1645.4 1278.4,1646.4 1278.4,1648.6 1276.9,1648.6 			"/>
			<polygon fill="#F16650" points="1268.8,1652.7 1267.3,1653.7 1267.3,1655.9 1268.8,1655.9 			"/>
			<polygon fill="#F16650" points="1281.2,1652.7 1282.7,1653.7 1282.7,1655.9 1281.2,1655.9 			"/>
			<polygon fill="#CECDCC" points="1272.6,1651 1275,1651 1277.4,1651 1276.3,1653.2 1275,1653.2 1273.7,1653.2 			"/>
			<path fill="#9CD8F6" d="M1275,1644.9c0.6,0,1,1,1,2.3c0,1.3-0.5,2.3-1,2.3c-0.6,0-1-1-1-2.3
				C1274,1645.9,1274.4,1644.9,1275,1644.9z"/>
			<path fill="none" d="M1275.2,1644.9L1275.2,1644.9L1275.2,1644.9C1275.2,1644.9,1275.2,1644.9,1275.2,1644.9L1275.2,1644.9
				C1275.2,1644.9,1275.2,1644.9,1275.2,1644.9L1275.2,1644.9C1275.3,1644.9,1275.3,1644.9,1275.2,1644.9L1275.2,1644.9
				L1275.2,1644.9c0.1,0,0.1,0,0.1,0.1l0,0h0l0,0c0,0,0,0,0,0h0c0,0,0.1,0,0.1,0.1c-0.4,0.4-0.6,1.2-0.6,2.1c0,0.9,0.3,1.8,0.6,2.1
				c-0.1,0.1-0.1,0.1-0.2,0.1l0,0c0,0,0,0,0,0l0,0c0,0,0,0,0,0h0l0,0c0,0,0,0,0,0h0h0h0v0l0,0c0,0,0,0,0,0l0,0h0l0,0c0,0,0,0,0,0h0
				c0,0,0,0,0,0h0h0c0,0,0,0,0,0l0,0c-0.1,0-0.2,0-0.3-0.1c0,0,0,0,0,0l0,0c0,0,0,0,0,0l0,0c0,0,0,0,0,0l0,0c0,0,0,0,0,0l0,0
				c0,0,0,0,0,0l0,0c0,0,0,0,0,0l0,0c0,0,0,0,0,0l0,0c0,0,0,0,0,0l0,0c0,0,0,0,0,0l0,0c0,0,0,0,0,0l0,0c0,0,0,0,0,0l0,0c0,0,0,0,0,0
				l0,0c0,0,0,0,0,0l0,0c0,0,0,0,0,0l0,0c0,0,0,0,0,0l0,0c0,0,0,0,0,0l0,0c0,0,0,0,0,0l0,0c0,0,0,0,0,0l0,0c0,0,0,0,0,0l0,0
				c0,0,0,0,0,0l0,0c0,0,0,0,0,0l0,0c0,0,0,0,0,0l0,0c0,0,0,0,0,0l0,0c0,0,0,0,0,0l0,0c0,0,0,0,0,0l0,0c0,0,0,0,0,0c0,0,0,0,0,0l0,0
				c0,0,0,0,0,0l0,0c0,0,0,0,0,0c0,0,0,0,0,0l0,0c0,0,0,0,0,0c0,0,0,0,0,0l0,0c0,0,0,0,0,0l0,0c0,0,0,0,0,0l0,0c0,0,0,0,0,0
				c0,0,0,0,0-0.1c0,0,0,0,0,0c0,0,0,0,0-0.1c0,0,0,0,0,0s0,0,0-0.1l0,0c0,0,0,0,0,0c0,0,0,0,0-0.1c0,0,0,0,0-0.1l0,0c0,0,0,0,0-0.1
				c0,0,0,0,0-0.1c0,0,0,0,0-0.1c0,0,0,0,0-0.1c0,0,0,0,0-0.1c0,0,0,0,0-0.1c0,0,0,0,0-0.1s0,0,0-0.1s0,0,0-0.1c0,0,0,0,0-0.1
				c0,0,0,0,0-0.1c0,0,0,0,0-0.1l0,0c0,0,0,0,0-0.1l0,0c0,0,0,0,0-0.1s0,0,0-0.1s0,0,0-0.1l0,0c0,0,0,0,0-0.1l0,0c0,0,0,0,0-0.1l0,0
				c0,0,0,0,0-0.1c0,0,0,0,0-0.1l0,0c0,0,0,0,0-0.1l0,0c0,0,0,0,0-0.1l0,0c0,0,0,0,0-0.1l0,0c0,0,0,0,0-0.1l0,0 M1274.3,1645.6
				L1274.3,1645.6C1274.3,1645.5,1274.3,1645.5,1274.3,1645.6L1274.3,1645.6c0.2-0.4,0.5-0.7,0.7-0.7c0.1,0,0.1,0,0.2,0"/>
			<path fill="#4B2E2E" d="M1275,1645.2c-0.2,0-0.3,0.2-0.5,0.5c-0.2,0.4-0.3,0.9-0.3,1.5l0,0c0,0.6,0.1,1.1,0.3,1.5
				c0.1,0.3,0.3,0.5,0.5,0.5c0.2,0,0.3-0.2,0.5-0.5c0.2-0.4,0.3-0.9,0.3-1.5l0,0c0-0.6-0.1-1.1-0.3-1.5
				C1275.4,1645.4,1275.2,1645.2,1275,1645.2z M1275,1644.6c0.4,0,0.8,0.3,1,0.9c0.2,0.5,0.3,1.1,0.3,1.8h0c0,0.7-0.1,1.3-0.3,1.8
				c-0.2,0.5-0.6,0.9-1,0.9c-0.4,0-0.8-0.3-1-0.9c-0.2-0.5-0.3-1.1-0.3-1.8h0c0-0.7,0.1-1.3,0.3-1.8
				C1274.3,1644.9,1274.6,1644.6,1275,1644.6L1275,1644.6z"/>
			<path fill="#F16650" d="M1273.5,1654.4c0.2,0,0.4,0.2,0.4,0.4c0,0.2-0.2,0.4-0.4,0.4s-0.4-0.2-0.4-0.4
				C1273,1654.6,1273.2,1654.4,1273.5,1654.4z"/>
			<path fill="#F16650" d="M1275,1654.4c0.2,0,0.4,0.2,0.4,0.4c0,0.2-0.2,0.4-0.4,0.4s-0.4-0.2-0.4-0.4
				C1274.6,1654.6,1274.8,1654.4,1275,1654.4z"/>
			<path fill="#F16650" d="M1276.6,1654.4c0.2,0,0.4,0.2,0.4,0.4c0,0.2-0.2,0.4-0.4,0.4c-0.2,0-0.4-0.2-0.4-0.4
				C1276.1,1654.6,1276.3,1654.4,1276.6,1654.4z"/>
			<path fill="#4B2E2E" d="M1269.1,1655.6h0.6v-4.4v-0.6c0-0.1,0-0.2-0.1-0.2l0,0c0,0-0.1-0.1-0.2-0.1c-0.1,0-0.1,0-0.2,0.1l0,0
				c0,0-0.1,0.1-0.1,0.2V1655.6z M1268.5,1655.6v-2.4l-0.9,0.6v1.8H1268.5L1268.5,1655.6z M1273.1,1651.3l0.8,1.5h2.2l0.8-1.5
				H1273.1L1273.1,1651.3z M1277.5,1651.3l-1.1,2.1h-3l-1.1-2.1h-0.5v3c0,0.8,0.3,1.6,0.9,2.2c0.6,0.6,1.3,0.9,2.2,0.9
				c0.8,0,1.6-0.3,2.2-0.9c0.6-0.6,0.9-1.3,0.9-2.2v-3H1277.5L1277.5,1651.3z M1280.4,1655.6h0.6v-5c0-0.1,0-0.2-0.1-0.2l0,0
				c0,0-0.1-0.1-0.2-0.1c-0.1,0-0.1,0-0.2,0.1l0,0c0,0-0.1,0.1-0.1,0.2v0.6V1655.6L1280.4,1655.6z M1281.5,1653.2v2.4h0.9v-1.8
				L1281.5,1653.2L1281.5,1653.2z M1278.6,1651.8v2.6v1.3h1.1v-3.9H1278.6L1278.6,1651.8z M1270.2,1651.8v3.9h1.1v-1.3v-2.6H1270.2
				L1270.2,1651.8z M1278.1,1646.5l-0.9-0.6v2.4h0.9V1646.5L1278.1,1646.5z M1272.8,1645.9l-0.9,0.6v1.8h0.9V1645.9L1272.8,1645.9z
				 M1273.4,1650.7h3.3v-1.8v-3.8c0-0.4-0.2-0.9-0.5-1.1c-0.3-0.3-0.7-0.5-1.1-0.5c-0.4,0-0.9,0.2-1.1,0.5c-0.3,0.3-0.5,0.7-0.5,1.1
				v3.8V1650.7L1273.4,1650.7z M1269.7,1648.8v1c0.1,0,0.2,0.1,0.3,0.2l0,0c0.2,0.2,0.3,0.4,0.3,0.6v0.6h1.1v-0.5h0.3h0.5h0.5h0.2
				v-1.8h-1.5v-2.7l0.1-0.1l1.4-0.9v0c0-0.6,0.2-1.2,0.7-1.6c0.3-0.3,0.8-0.6,1.3-0.6v-1h0.6v1c0.5,0.1,0.9,0.3,1.3,0.6
				c0.4,0.4,0.7,1,0.7,1.6v0l1.5,1v2.7h-1.5v1.8h0.6h0.8v0.5h1.1v-0.6c0-0.2,0.1-0.5,0.2-0.6h0c0.1-0.1,0.2-0.2,0.3-0.2v-1h0.6v1
				c0.1,0,0.2,0.1,0.3,0.2l0,0c0.2,0.2,0.3,0.4,0.3,0.6v1.9l1.5,1v2.7h-1.5h-0.6h-0.6h-0.6h-0.8h-0.6h-0.2c-0.2,0.3-0.3,0.5-0.6,0.7
				c-1.4,1.4-3.8,1.4-5.1,0c-0.2-0.2-0.4-0.4-0.6-0.7h-0.2h-0.6h-0.8h-0.3h-0.3h-0.6h-0.6h-1.5v-2.7l0.1-0.1l1.4-0.9v-1.9
				c0-0.2,0.1-0.5,0.3-0.6l0,0c0.1-0.1,0.2-0.2,0.3-0.2v-1H1269.7L1269.7,1648.8z"/>
		</g>
	</g>
</g>
</svg>
