<?xml version="1.0" encoding="UTF-8"?>
<!DOCTYPE svg PUBLIC "-//W3C//DTD SVG 1.1//EN" "http://www.w3.org/Graphics/SVG/1.1/DTD/svg11.dtd">
<!-- Creator: CorelDRAW Home & Student X7 -->
<svg xmlns="http://www.w3.org/2000/svg" xml:space="preserve" width="32px" height="32px" version="1.1" style="shape-rendering:geometricPrecision; text-rendering:geometricPrecision; image-rendering:optimizeQuality; fill-rule:evenodd; clip-rule:evenodd"
viewBox="0 0 32 32"
 xmlns:xlink="http://www.w3.org/1999/xlink">
 <defs>
  <style type="text/css">
   <![CDATA[
    .fil5 {fill:none}
    .fil2 {fill:#FEFEFE}
    .fil4 {fill:#F16650}
    .fil0 {fill:#E8E7E5}
    .fil1 {fill:#CECDCC}
    .fil3 {fill:#9CD8F6}
    .fil6 {fill:#4B2E2E}
   ]]>
  </style>
 </defs>
 <g id="Layer_x0020_1">
  <metadata id="CorelCorpID_0Corel-Layer"/>
  <g id="_280527808">
   <path class="fil0" d="M9 18l14 0 0 7c0,3 -3,6 -7,6l0 0c-4,0 -7,-3 -7,-6l0 -7z"/>
   <path class="fil1" d="M19 18l4 0 0 7c0,3 -3,6 -7,6l0 0c-1,0 -1,0 -2,0 3,-1 5,-3 5,-6l0 -7zm-3 13l0 0z"/>
   <path class="fil2" d="M10 25l0 -7 -1 0 0 7c0,0 0,0 0,0 0,0 0,0 0,0 0,0 0,0 0,0 0,0 0,0 0,0 0,0 0,1 0,1 0,0 0,0 0,0l0 0c0,0 0,0 0,0 0,0 0,0 0,0 0,0 0,0 0,0l0 0c0,0 0,0 1,0 0,0 0,1 0,1 0,0 0,0 0,0l0 0c0,0 0,0 0,0 0,0 0,0 0,0l0 0c0,0 0,0 0,0l0 0c0,0 0,0 0,0l0 0c0,0 0,0 0,0l0 0c0,1 0,1 0,1l0 0c0,0 0,0 0,0l0 0c0,0 0,0 0,0l0 0c0,0 0,0 0,0l0 0c0,0 0,0 0,0l0 0c0,0 0,0 0,0l0 0c0,0 0,0 0,0l0 0c0,1 1,1 1,1l0 0c0,0 0,0 0,0l0 0c0,0 0,0 0,0l0 0c0,0 0,0 0,0l0 0c0,0 0,0 0,0l0 0c0,0 0,0 0,0l0 0c0,0 0,0 0,0l0 0c0,0 0,0 0,0l0 0c0,1 0,1 0,1l0 0c0,0 0,0 0,0l0 0c1,0 1,0 1,0l0 0c0,0 0,0 0,0l0 0c0,0 0,0 0,0l0 0c0,0 0,0 0,0l0 0c0,0 0,0 0,0 1,1 3,1 4,1l0 0 0 0c0,0 0,0 0,0l0 0c0,0 0,0 0,0l0 0c0,0 0,0 1,0 -4,0 -7,-3 -7,-6z"/>
   <path class="fil0" d="M12 18l8 0 0 -12c0,-2 -2,-3 -4,-3l0 0c-2,0 -4,1 -4,3l0 12z"/>
   <path class="fil1" d="M20 18l0 -12c0,-1 -1,-2 -1,-2l0 0c0,0 0,0 0,0l0 0c-1,-1 -2,-1 -3,-1l0 0c0,0 -1,0 -1,0l0 0c0,0 0,0 0,0l0 0c0,0 0,0 0,0l0 0c0,0 0,0 0,0l0 0 0 0c1,0 3,2 3,3l0 12 2 0z"/>
   <path class="fil2" d="M13 18l0 -12c0,-2 2,-3 4,-3 0,0 0,0 0,0l0 0c-1,0 -1,0 -1,0l0 0 0 0 0 0c0,0 0,0 0,0l0 0 0 0c0,0 0,0 0,0l0 0 0 0c0,0 0,0 0,0l0 0 0 0c0,0 0,0 0,0l0 0c-2,0 -4,1 -4,3l0 2 0 5 0 5 1 0z"/>
   <polygon class="fil0" points="9,19 6,19 6,28 9,28 "/>
   <polygon class="fil0" points="26,19 23,19 23,28 26,28 "/>
   <path class="fil3" d="M6 28l-2 0 0 -11c0,0 0,-1 1,-1l0 0c0,0 1,1 1,1l0 11z"/>
   <path class="fil3" d="M28 28l-2 0 0 -11c0,0 1,-1 1,-1l0 0c1,0 1,1 1,1l0 11z"/>
   <polygon class="fil4" points="12,7 9,9 9,13 12,13 "/>
   <polygon class="fil4" points="20,7 23,9 23,13 20,13 "/>
   <polygon class="fil4" points="4,21 1,23 1,28 4,28 "/>
   <polygon class="fil4" points="28,21 31,23 31,28 28,28 "/>
   <polygon class="fil1" points="11,18 16,18 21,18 19,22 16,22 13,22 "/>
   <path class="fil3" d="M16 6c1,0 2,2 2,4 0,3 -1,5 -2,5 -1,0 -2,-2 -2,-5 0,-2 1,-4 2,-4z"/>
   <path class="fil5" d="M16 6l0 0 0 0c0,0 0,0 0,0l0 0c0,0 0,0 1,0l0 0c0,0 0,0 0,0l0 0 0 0c0,0 0,0 0,0l0 0 0 0 0 0c0,0 0,0 0,0l0 0c0,0 0,0 0,0 -1,1 -1,2 -1,4 0,2 0,4 1,5 0,0 0,0 -1,0l0 0c0,0 0,0 0,0l0 0c0,0 0,0 0,0l0 0 0 0c0,0 0,0 0,0l0 0c0,0 0,0 0,0l0 0 0 0 0 0c0,0 0,0 0,0l0 0 0 0 0 0c0,0 0,0 0,0l0 0c0,0 0,0 0,0l0 0c0,0 0,0 0,0 0,0 0,0 0,0l0 0c0,0 0,0 0,0 0,0 -1,0 -1,0l0 0c0,0 0,0 0,0l0 0c0,0 0,0 0,0l0 0c0,0 0,0 0,0l0 0c0,0 0,0 0,0l0 0c0,0 0,0 0,0l0 0c0,0 0,0 0,0l0 0c0,0 0,0 0,0l0 0c0,0 0,0 0,0l0 0c0,0 0,0 0,-1l0 0c0,0 0,0 0,0l0 0c0,0 0,0 0,0l0 0c0,0 0,0 0,0l0 0c0,0 0,0 0,0l0 0c0,0 0,0 0,0l0 0c0,0 0,0 0,0l0 0c0,0 0,0 0,0l0 0c0,0 0,0 0,0l0 0c0,0 0,0 0,0l0 0c0,0 0,0 0,0l0 0c0,0 0,0 0,0l0 0c0,0 0,0 0,0l0 0c0,0 0,0 0,0l0 0c0,0 0,0 0,0l0 0c-1,-1 -1,-1 -1,-1l0 0c0,0 0,0 0,0 0,0 0,0 0,0l0 0c0,0 0,0 0,0l0 0c0,0 0,0 0,0 0,0 0,0 0,0l0 0c0,0 0,0 0,0 0,0 0,0 0,0l0 0c0,0 0,0 0,0l0 0c0,0 0,0 0,0l0 0c0,0 0,0 0,0 0,-1 0,-1 0,-1 0,0 0,0 0,0 0,0 0,0 0,0 0,0 0,0 0,0 0,0 0,0 0,0l0 0c0,0 0,0 0,0 0,0 0,0 0,0 0,0 0,0 0,0l0 0c0,0 0,0 0,0 0,0 0,-1 0,-1 0,0 0,0 0,0 0,0 0,0 0,0 0,0 0,0 0,0 0,0 0,0 0,0 0,0 0,0 0,0 0,0 0,0 0,0 0,0 0,0 0,0 0,0 0,0 0,0 0,-1 0,-1 0,-1 0,0 0,0 0,0l0 0c0,0 0,0 0,0l0 0c0,0 0,0 0,0 0,0 0,0 0,0 0,0 0,0 0,0l0 0c0,0 0,0 0,0l0 0c0,0 0,0 0,0l0 0c0,0 0,-1 0,-1 0,0 0,0 0,0l0 0c0,0 0,0 0,0l0 0c0,0 0,0 0,0l0 0c0,0 0,0 0,0l0 0c0,0 0,0 0,0l0 0m1 -2l0 0c0,0 0,0 0,0l0 0c0,-1 0,-1 1,-1 0,0 0,0 0,0"/>
   <path class="fil6" d="M16 6c0,0 -1,1 -1,1 0,1 0,2 0,3l0 0c0,2 0,3 0,3 0,1 1,1 1,1 0,0 1,0 1,-1 0,0 1,-1 1,-3l0 0c0,-1 -1,-2 -1,-3 0,0 -1,-1 -1,-1zm0 -1c1,0 2,1 2,2 0,1 1,2 1,3l0 0c0,2 -1,3 -1,4 0,1 -1,2 -2,2 -1,0 -1,-1 -2,-2 0,-1 -1,-2 -1,-4l0 0c0,-1 1,-2 1,-3 1,-1 1,-2 2,-2l0 0z"/>
   <path class="fil4" d="M13 25c0,0 1,0 1,1 0,0 -1,1 -1,1 -1,0 -1,-1 -1,-1 0,-1 0,-1 1,-1z"/>
   <path class="fil4" d="M16 25c0,0 1,0 1,1 0,0 -1,1 -1,1 0,0 -1,-1 -1,-1 0,-1 1,-1 1,-1z"/>
   <path class="fil4" d="M19 25c1,0 1,0 1,1 0,0 0,1 -1,1 0,0 -1,-1 -1,-1 0,-1 1,-1 1,-1z"/>
   <path class="fil6" d="M4 27l1 0 0 -9 0 -1c0,0 0,0 0,0l0 0c0,0 0,0 0,0 0,0 -1,0 -1,0l0 0c0,0 0,0 0,0l0 10zm-1 0l0 -5 -2 2 0 3 2 0 0 0zm9 -8l2 3 4 0 2 -3 -8 0 0 0zm9 0l-2 4 -6 0 -2 -4 -1 0 0 6c0,1 1,3 2,4 1,1 2,2 4,2 2,0 3,-1 4,-2 1,-1 2,-3 2,-4l0 -6 -1 0 0 0zm6 8l1 0 0 -10c0,0 0,0 0,0l0 0c0,0 -1,0 -1,0 0,0 0,0 0,0l0 0c0,0 0,0 0,0l0 1 0 9 0 0zm2 -5l0 5 2 0 0 -3 -2 -2 0 0zm-6 -2l0 5 0 2 3 0 0 -7 -3 0 0 0zm-17 0l0 7 3 0 0 -2 0 -5 -3 0 0 0zm16 -11l-2 -1 0 5 2 0 0 -4 0 0zm-10 -1l-2 1 0 4 2 0 0 -5 0 0zm1 9l6 0 0 -3 0 -8c0,-1 0,-1 -1,-2 0,-1 -1,-1 -2,-1 -1,0 -2,0 -2,1 -1,1 -1,1 -1,2l0 8 0 3 0 0zm-8 -3l0 2c1,0 1,0 1,0l0 0c0,0 0,1 0,1l0 1 3 0 0 -1 0 0 1 0 1 0 1 0 0 -3 -3 0 0 -6 0 0 3 -2 0 0c0,-1 0,-2 1,-3 1,0 1,-1 2,-1l0 -2 2 0 0 2c1,0 2,1 2,1 1,1 1,2 1,3l0 0 3 2 0 6 -3 0 0 3 2 0 1 0 0 1 3 0 0 -1c0,0 0,-1 0,-1l0 0c0,0 0,0 1,0l0 -2 1 0 0 2c0,0 0,0 0,0l1 0c0,0 0,1 0,1l0 4 3 2 0 5 -3 0 -1 0 -1 0 -1 0 -2 0 -1 0 -1 0c0,1 0,1 -1,2 -3,3 -7,3 -10,0 -1,-1 -1,-1 -1,-2l-1 0 -1 0 -2 0 0 0 -1 0 -1 0 -1 0 -3 0 0 -5 0 0 3 -2 0 -4c0,0 0,-1 0,-1l1 0c0,0 0,0 0,0l0 -2 1 0 0 0z"/>
  </g>
 </g>
</svg>
