<?xml version="1.0" encoding="utf-8"?>
<!-- Generator: Adobe Illustrator 18.0.0, SVG Export Plug-In . SVG Version: 6.00 Build 0)  -->
<!DOCTYPE svg PUBLIC "-//W3C//DTD SVG 1.1//EN" "http://www.w3.org/Graphics/SVG/1.1/DTD/svg11.dtd">
<svg version="1.1"
	 id="Layer_1" image-rendering="optimizeQuality" text-rendering="geometricPrecision" shape-rendering="geometricPrecision"
	 xmlns="http://www.w3.org/2000/svg" xmlns:xlink="http://www.w3.org/1999/xlink" x="0px" y="0px" width="16px" height="16px"
	 viewBox="1267 1642 16 16" enable-background="new 1267 1642 16 16" xml:space="preserve">
<g>
	<g id="Layer_x0020_1_1_">
		<g id="_308188648_1_">
			<path fill="#E8E7E5" d="M1272.1,1650l0.9-5.7c0.2-1,0.9-1.9,2-1.9l0,0l0,0c1.1,0,1.8,0.9,2,1.9l0.9,5.7v6.2h-2.9h-2.9V1650z"/>
			<path fill="#CECDCC" d="M1274.3,1642.5c0.1-0.1,0.3-0.1,0.4-0.1h0c0,0,0,0,0,0l0,0h0l0,0h0c0,0,0,0,0,0l0,0c0,0,0,0,0,0h0
				c0,0,0,0,0,0l0,0c0,0,0,0,0.1,0l0,0c0,0,0,0,0.1,0s0,0,0.1,0s0,0,0,0c0,0,0,0,0.1,0s0,0,0.1,0c0,0,0,0,0,0c0,0,0,0,0.1,0
				c0,0,0,0,0,0c0,0,0,0,0.1,0c0,0,0,0,0,0c0,0,0,0,0,0c0,0,0,0,0,0l0,0c0,0,0,0,0.1,0c0,0,0,0,0,0c0,0,0,0,0,0c0,0,0,0,0,0
				c0,0,0,0,0,0c0,0,0,0,0,0s0,0,0,0l0,0c0,0,0,0,0,0c0,0,0,0,0,0c0,0,0,0,0,0l0,0c0,0,0,0,0,0l0,0c0,0,0,0,0,0c0,0,0,0,0,0l0,0
				c0,0,0,0,0,0c0,0,0,0,0,0l0,0c0,0,0,0,0,0c0,0,0,0,0,0c0,0,0,0,0,0c0,0,0,0,0,0c0,0,0,0,0,0l0,0c0,0,0,0,0,0l0,0c0,0,0,0,0,0l0,0
				c0,0,0,0,0,0l0,0c0,0,0,0,0,0l0,0c0.3,0.3,0.4,0.8,0.5,1.2l0.9,5.7v6.2h-1.4v-6.2l-0.9-5.7
				C1275.4,1643.5,1275,1642.8,1274.3,1642.5z M1275,1642.3L1275,1642.3z"/>
			<path fill="#9CD8F6" d="M1273.6,1648.2h1.4h1.4l-0.6-3.4c-0.1-0.4-0.4-0.8-0.8-0.8l0,0c-0.4,0-0.7,0.3-0.8,0.8L1273.6,1648.2z"/>
			<path fill="#9CD8F6" d="M1269.1,1652.4v-3.9c0-0.3,0.3-0.6,0.6-0.6l0,0c0.3,0,0.6,0.3,0.6,0.6v3c-0.3,0.2-0.7,0.5-1,0.7
				C1269.2,1652.3,1269.2,1652.4,1269.1,1652.4z"/>
			<path fill="#9CD8F6" d="M1279.7,1651.6v-3c0-0.3,0.3-0.6,0.6-0.6l0,0c0.3,0,0.6,0.3,0.6,0.6v3.9c-0.1-0.1-0.1-0.1-0.2-0.1
				C1280.3,1652,1280,1651.8,1279.7,1651.6z"/>
			<path fill="#F16650" d="M1267.3,1656.2v-1.6c0-1.3,1-1.7,2-2.4c1.3-0.9,2.2-1.6,2.8-2.3v6.2H1267.3z"/>
			<path fill="#F16650" d="M1282.7,1656.2v-1.6c0-1.3-1-1.7-2-2.4c-1.3-0.9-2.2-1.6-2.8-2.3v6.2H1282.7z"/>
			<path fill="#F16650" d="M1273.7,1653.2h2.6c0.2,0,0.5,0.2,0.5,0.4l0,0c0,0.2-0.2,0.4-0.5,0.4h-2.6c-0.2,0-0.5-0.2-0.5-0.4l0,0
				C1273.2,1653.4,1273.4,1653.2,1273.7,1653.2z"/>
			<path fill="#4B2E2E" d="M1277.6,1656.5h-1.4v0.9h1.4V1656.5z M1273.8,1656.5h-1.4v0.9h1.4V1656.5L1273.8,1656.5z M1269.4,1648.5
				v3.3c0.1-0.1,0.2-0.1,0.2-0.2c0.1-0.1,0.2-0.2,0.4-0.3v-2.9c0-0.1,0-0.2-0.1-0.2l0,0c-0.1-0.1-0.1-0.1-0.2-0.1
				c-0.1,0-0.2,0-0.2,0.1l0,0C1269.4,1648.4,1269.4,1648.4,1269.4,1648.5L1269.4,1648.5z M1273.3,1644.3l-0.9,5.7v1.8
				c0.1-0.1,0.2-0.2,0.3-0.3c0.5-0.5,1.3-0.9,2.1-0.9h0.4c0.8,0,1.6,0.3,2.1,0.9c0.1,0.1,0.2,0.2,0.3,0.3v-1.8l-0.9-5.7
				c-0.1-0.5-0.3-0.9-0.6-1.2c-0.3-0.3-0.6-0.4-1.1-0.4s-0.8,0.2-1.1,0.4C1273.6,1643.4,1273.4,1643.8,1273.3,1644.3L1273.3,1644.3z
				 M1275,1648.5h1.7l-0.6-3.8c0-0.3-0.2-0.5-0.4-0.7l0,0c-0.2-0.2-0.4-0.3-0.7-0.3s-0.6,0.1-0.7,0.3l0,0c-0.2,0.2-0.3,0.5-0.4,0.7
				l-0.6,3.8H1275L1275,1648.5z M1274,1647.9h1.9l-0.5-3c0-0.2-0.1-0.3-0.2-0.4l0,0c-0.1-0.1-0.2-0.1-0.3-0.1s-0.2,0-0.3,0.1l0,0
				c-0.1,0.1-0.2,0.2-0.2,0.4L1274,1647.9L1274,1647.9z M1280,1648.5v2.9c0.1,0.1,0.2,0.2,0.4,0.3c0.1,0.1,0.2,0.1,0.2,0.2v-3.3
				c0-0.1,0-0.2-0.1-0.2l0,0c-0.1-0.1-0.1-0.1-0.2-0.1c-0.1,0-0.2,0-0.2,0.1l0,0C1280,1648.4,1280,1648.4,1280,1648.5L1280,1648.5z
				 M1282.4,1655.9v-1.2c0-0.8-0.5-1.3-1.1-1.7l-0.3-0.2v0h0c-0.1,0-0.1-0.1-0.2-0.1l0,0l0,0l-0.1,0l0,0l0,0l0,0l0,0h0l0,0h0l0,0
				l0,0h0v0h0l0,0l0,0h0l0,0l0,0l0,0l0,0l0,0h0l0,0l0,0h0h0l0,0l0,0l0,0l0,0h0l0,0l0,0l0,0c-0.1-0.1-0.2-0.2-0.4-0.3
				c-0.2-0.1-0.3-0.2-0.5-0.4l-0.1-0.1l0,0c-0.2-0.1-0.3-0.3-0.5-0.4c-0.2-0.2-0.4-0.4-0.6-0.6v5.1L1282.4,1655.9L1282.4,1655.9z
				 M1275.9,1655.9h1.7v-2.3c0-0.6-0.3-1.2-0.7-1.6c-0.4-0.4-1-0.7-1.7-0.7h-0.4c-0.7,0-1.2,0.3-1.7,0.7c-0.4,0.4-0.7,1-0.7,1.6v2.3
				l2,0h1.1L1275.9,1655.9L1275.9,1655.9z M1270.6,1651.7L1270.6,1651.7l-0.1,0.1c-0.2,0.1-0.3,0.2-0.5,0.4
				c-0.1,0.1-0.2,0.2-0.4,0.3l0,0l0,0l0,0h0l0,0l0,0l0,0l0,0l0,0h0l0,0l0,0h0l0,0l0,0l0,0l0,0l0,0h0l0,0l0,0h0l0,0l0,0l0,0l0,0h0
				l0,0h0l0,0l0,0h0v0l-0.1,0l0,0v0c-0.1,0.1-0.1,0.1-0.2,0.1h0l-0.3,0.2c-0.6,0.4-1.1,0.8-1.1,1.6v1.2h4.1v-5.1
				c-0.2,0.2-0.4,0.4-0.6,0.6C1271,1651.4,1270.8,1651.6,1270.6,1651.7L1270.6,1651.7z M1268.8,1652.2v-3.7c0-0.3,0.1-0.5,0.3-0.7
				l0,0c0.2-0.2,0.4-0.3,0.7-0.3s0.5,0.1,0.7,0.3l0,0c0.2,0.2,0.3,0.4,0.3,0.7v2.4c0,0,0.1,0,0.1-0.1c0.4-0.3,0.8-0.7,1.1-1l0.9-5.6
				c0.1-0.6,0.4-1.2,0.8-1.6c0.4-0.4,0.9-0.6,1.5-0.6s1.1,0.2,1.5,0.6c0.4,0.4,0.7,1,0.8,1.6l0.9,5.6c0.3,0.3,0.6,0.7,1.1,1
				c0,0,0.1,0,0.1,0.1v-2.4c0-0.3,0.1-0.5,0.3-0.7l0,0c0.2-0.2,0.4-0.3,0.7-0.3s0.5,0.1,0.7,0.3l0,0c0.2,0.2,0.3,0.4,0.3,0.7v3.7
				l0,0c0.9,0.6,1.7,1.1,1.7,2.4v1.9h-3.7h-0.6h-0.4v1.5h-0.9h-0.6h-1.1v-1.5h-0.3h-0.6h-0.2v1.5h-1.1h-0.6h-0.9v-1.5h0h-0.4h-0.6
				h-3.7v-0.3v-1.6C1267,1653.3,1267.8,1652.8,1268.8,1652.2L1268.8,1652.2L1268.8,1652.2z"/>
			<polygon fill="#9CD8F6" points="1273.8,1656.5 1272.4,1656.5 1272.4,1657.4 1273.8,1657.4 			"/>
			<polygon fill="#9CD8F6" points="1276.2,1656.5 1276.2,1657.4 1277.6,1657.4 1277.6,1656.5 			"/>
		</g>
	</g>
</g>
</svg>
