<?xml version="1.0" encoding="UTF-8"?>
<!DOCTYPE svg PUBLIC "-//W3C//DTD SVG 1.1//EN" "http://www.w3.org/Graphics/SVG/1.1/DTD/svg11.dtd">
<!-- Creator: CorelDRAW Home & Student X7 -->
<svg xmlns="http://www.w3.org/2000/svg" xml:space="preserve" width="32px" height="32px" version="1.1" style="shape-rendering:geometricPrecision; text-rendering:geometricPrecision; image-rendering:optimizeQuality; fill-rule:evenodd; clip-rule:evenodd"
viewBox="0 0 107 107"
 xmlns:xlink="http://www.w3.org/1999/xlink">
 <defs>
  <style type="text/css">
   <![CDATA[
    .fil3 {fill:#F16650}
    .fil0 {fill:#E8E7E5}
    .fil1 {fill:#CECDCC}
    .fil2 {fill:#9CD8F6}
    .fil4 {fill:#4B2E2E}
   ]]>
  </style>
 </defs>
 <g id="Layer_x0020_1">
  <metadata id="CorelCorpID_0Corel-Layer"/>
  <g id="_346265992">
   <path class="fil0" d="M34 53l6 -38c1,-7 6,-13 13,-13l0 0 0 0c8,0 12,6 14,13l6 38 0 42 -20 0 -19 0 0 -42z"/>
   <path class="fil1" d="M49 3c0,0 1,-1 2,-1l1 0c0,0 0,0 0,0l0 0 0 0 0 0 0 0c0,0 0,0 0,0l0 0c0,0 1,0 1,0l0 0c0,0 0,0 0,0l0 0c0,0 0,0 0,0l0 0c0,0 1,0 1,0 0,0 0,0 0,0 0,0 0,0 0,0 0,0 1,0 1,0 0,0 0,0 0,0 0,0 0,0 0,0 0,0 1,0 1,0 0,0 0,0 0,0 0,0 0,0 0,0 0,0 0,0 1,1 0,0 0,0 0,0 0,0 0,0 0,0l0 0c0,0 0,0 0,0 1,0 1,0 1,0 0,0 0,0 0,0 0,0 0,0 0,0 0,0 0,0 1,0 0,0 0,0 0,0 0,0 0,0 0,1l0 0c0,0 0,0 0,0 0,0 1,0 1,0 0,0 0,0 0,0l0 0c0,0 0,0 0,0l0 0c0,0 0,0 0,0 0,0 1,0 1,1l0 0c0,0 0,0 0,0 0,0 0,0 0,0l0 0c0,0 0,0 0,0 0,0 0,0 1,0 0,0 0,0 0,0 0,1 0,1 0,1 0,0 0,0 0,0l0 0c0,0 0,0 0,0l0 0c0,0 1,0 1,0l0 0c0,0 0,1 0,1l0 0c0,0 0,0 0,0l0 0c2,2 3,5 4,8l6 38 0 42 -10 0 0 -42 -6 -38c-1,-5 -4,-10 -8,-12zm4 -1l0 0z"/>
   <path class="fil2" d="M44 41l9 0 9 0 -3 -23c-1,-2 -3,-5 -6,-5l0 0c-3,0 -4,3 -5,5l-4 23z"/>
   <path class="fil2" d="M14 69l0 -25c0,-3 2,-5 4,-5l0 0c2,0 4,2 4,5l0 20c-2,1 -4,3 -7,4 0,1 -1,1 -1,1z"/>
   <path class="fil2" d="M84 64l0 -20c0,-3 2,-5 5,-5l0 0c2,0 4,2 4,5l0 25c-1,0 -1,0 -2,-1 -2,-1 -4,-3 -7,-4z"/>
   <path class="fil3" d="M2 95l0 -11c0,-8 7,-11 13,-16 9,-5 15,-10 19,-15l0 42 -32 0z"/>
   <path class="fil3" d="M105 95l0 -11c0,-8 -7,-11 -14,-16 -8,-5 -14,-10 -18,-15l0 42 32 0z"/>
   <path class="fil3" d="M45 74l17 0c2,0 3,2 3,3l0 0c0,2 -1,3 -3,3l-17 0c-2,0 -3,-1 -3,-3l0 0c0,-1 1,-3 3,-3z"/>
   <path class="fil4" d="M71 97l-9 0 0 5 9 0 0 -5zm-26 0l-9 0 0 5 9 0 0 -5 0 0zm-29 -53l0 22c1,-1 1,-1 2,-2 0,0 1,-1 2,-1l0 -19c0,-1 0,-1 -1,-2l0 0c0,0 0,0 -1,0 -1,0 -1,0 -1,0l0 0c-1,1 -1,1 -1,2l0 0zm26 -29l-6 38 0 12c1,-1 1,-1 2,-2 3,-3 8,-6 14,-6l3 0c5,0 10,3 14,6 1,1 1,1 2,2l0 -12 -7 -38c0,-3 -2,-6 -4,-8 -1,-2 -4,-3 -7,-3 -3,0 -5,1 -7,3 -2,2 -3,5 -4,8l0 0zm11 28l12 0 -4 -25c-1,-2 -1,-4 -3,-5l0 0c-1,-1 -3,-2 -5,-2 -2,0 -3,1 -5,2l0 0c-1,1 -2,3 -2,5l-4 25 11 0 0 0zm-6 -4l13 0 -4 -20c0,-1 0,-2 -1,-3l0 0c0,0 -1,-1 -2,-1 0,0 -1,1 -2,1l0 0c0,1 -1,2 -1,3l-3 20 0 0zm40 5l0 19c0,0 1,1 2,1 1,1 1,1 2,2l0 -22c0,-1 -1,-1 -1,-2l0 0c0,0 -1,0 -1,0 -1,0 -1,0 -2,0l0 0c0,1 0,1 0,2l0 0zm15 48l0 -8c0,-5 -3,-8 -7,-11l-2 -1 0 0 0 0c-1,0 -1,-1 -2,-1l0 0 0 0 0 -1 -1 0 0 0 0 0 0 0 0 0 0 0 0 0 0 0 0 0 0 0 0 0 0 0 0 0 0 0 0 0 0 0 0 0 0 0 0 0 0 0 -1 0 0 0 0 0 0 0 0 0 0 0 0 0 0 0 0 0 0 -1 0 0 0 0 0 0c-1,0 -2,-1 -3,-1 -1,-1 -2,-2 -3,-3l-1 0 0 0c-1,-1 -2,-2 -3,-3 -1,-1 -3,-2 -4,-4l0 34 27 0 0 0zm-43 0l11 0 0 -15c0,-4 -1,-8 -4,-11 -3,-3 -7,-4 -11,-4l-3 0c-4,0 -8,1 -11,4 -3,3 -5,7 -5,11l0 15 14 0 7 0 2 0 0 0zm-35 -27l0 0 -1 0c-1,1 -2,2 -3,3 -1,0 -1,1 -2,1l0 0 0 0 0 0 0 1 0 0 -1 0 0 0 0 0 0 0 0 0 0 0 0 0 0 0 0 0 0 0 0 0 0 0 0 0 0 0 0 0 0 0 0 0 0 0 0 0 0 0 0 0 -1 0 0 0 0 0 0 0 0 0 0 0 0 0 0 1 0 0 -1 0c0,0 0,1 -1,1l0 0 -2 1c-4,3 -8,6 -8,11l0 8 28 0 0 -34c-2,2 -3,3 -4,4 -1,1 -2,2 -4,3l0 0zm-12 3l0 -24c0,-2 0,-4 2,-5l0 0c1,-1 2,-2 4,-2 2,0 3,1 4,2l0 0c2,1 2,3 2,5l0 15c1,0 1,0 1,0 3,-2 5,-5 7,-7l6 -37c1,-4 3,-8 5,-11 3,-2 6,-4 10,-4 4,0 8,2 10,4 3,3 5,7 6,11l6 37c2,2 4,5 7,7 0,0 0,0 0,0l0 -15c0,-2 1,-4 2,-5l0 0c1,-1 3,-2 5,-2 1,0 3,1 4,2l0 0c1,1 2,3 2,5l0 24 0 0c6,4 12,8 12,16l0 13 -25 0 -4 0 -3 0 0 10 -6 0 -4 0 -8 0 0 -10 -2 0 -4 0 -1 0 0 10 -8 0 -4 0 -6 0 0 -10 0 0 -3 0 -4 0 -25 0 0 -2 0 -11c0,-8 6,-12 11,-16l1 0 0 0z"/>
   <polygon class="fil2" points="45,97 36,97 36,102 45,102 "/>
   <polygon class="fil2" points="62,97 62,102 71,102 71,97 "/>
  </g>
 </g>
</svg>
