<?xml version="1.0" encoding="UTF-8"?>
<!DOCTYPE svg PUBLIC "-//W3C//DTD SVG 1.1//EN" "http://www.w3.org/Graphics/SVG/1.1/DTD/svg11.dtd">
<!-- Creator: CorelDRAW Home & Student X7 -->
<svg xmlns="http://www.w3.org/2000/svg" xml:space="preserve" width="29px" height="32px" version="1.1" style="shape-rendering:geometricPrecision; text-rendering:geometricPrecision; image-rendering:optimizeQuality; fill-rule:evenodd; clip-rule:evenodd"
viewBox="0 0 29 32"
 xmlns:xlink="http://www.w3.org/1999/xlink">
 <defs>
  <style type="text/css">
   <![CDATA[
    .fil1 {fill:#231F1F;fill-rule:nonzero}
    .fil4 {fill:#6BB6DD;fill-rule:nonzero}
    .fil3 {fill:#B1B1AF;fill-rule:nonzero}
    .fil2 {fill:#CDCDCD;fill-rule:nonzero}
    .fil0 {fill:#D63B60;fill-rule:nonzero}
    .fil5 {fill:#F2F2F2;fill-rule:nonzero}
   ]]>
  </style>
 </defs>
 <g id="Layer_x0020_1">
  <metadata id="CorelCorpID_0Corel-Layer"/>
  <g id="_471966472">
   <path class="fil0" d="M8 18c1,0 1,0 1,1l0 4c0,1 0,1 0,1 -1,0 -1,0 -1,0 0,0 0,0 0,0 -1,0 -1,0 -2,0 -1,-1 -2,-1 -3,-2 -1,0 -1,-1 -2,-1 0,-1 0,-1 0,-2 0,0 1,-1 2,-1 0,0 5,0 5,0z"/>
   <path class="fil1" d="M8 23c-1,0 -1,0 -2,0 -1,-1 -2,-1 -3,-2 0,0 -1,0 -1,-1 0,0 0,0 0,-1 0,0 0,-1 1,-1 0,0 0,0 0,0l5 1 0 4zm0 2l0 0c0,0 1,0 1,-1 0,0 0,0 1,-1l0 -4c0,-1 -1,-2 -2,-2l-5 0 0 0c-2,0 -3,1 -3,2 0,1 1,2 1,2 0,1 1,1 2,1 0,1 1,2 3,2 0,0 1,1 2,1 0,0 0,0 0,0z"/>
   <path class="fil0" d="M26 18c1,0 2,1 2,2 0,0 0,1 0,1 -1,0 -1,1 -2,1 -1,1 -2,1 -3,2 -1,0 -1,0 -2,0 0,0 0,0 0,0 0,0 0,0 -1,0 0,0 0,0 0,-1l0 -4c0,-1 0,-1 1,-1 0,0 5,0 5,0z"/>
   <path class="fil1" d="M21 23l0 -4 5 0c1,0 1,0 1,1 0,0 0,0 0,0 0,1 -1,1 -1,2 -1,0 -2,1 -3,1 -1,0 -1,0 -2,0zm0 2l0 0c0,0 0,0 0,0 1,0 2,0 2,-1 1,0 3,-1 3,-1 1,-1 2,-1 2,-2 0,0 1,-1 1,-1 0,-1 -1,-2 -1,-2 0,0 -1,-1 -2,-1l-5 0c0,0 0,0 0,0 0,0 -1,0 -1,1 0,0 -1,0 -1,1l0 4c0,1 1,1 1,2 0,0 1,0 1,0z"/>
   <path class="fil0" d="M3 21l0 -3 5 1 0 4c-1,0 -1,0 -2,0 -1,-1 -2,-1 -3,-2z"/>
   <path class="fil0" d="M21 23l0 -4 5 0 0 3c-1,0 -2,1 -3,1 -1,0 -1,0 -2,0z"/>
   <path class="fil2" d="M12 15c0,0 0,0 0,0 0,0 0,1 0,1l0 13c0,1 -1,2 -2,2 0,0 -1,0 -1,-1l-1 0c-2,-2 -3,-4 -3,-7l0 -5c0,-1 0,-1 1,-2 0,-1 1,-1 2,-1l4 0z"/>
   <path class="fil1" d="M10 30c0,0 -1,0 -1,0l-1 -1c-1,-1 -2,-3 -2,-6l0 -5c0,-1 0,-1 0,-1 1,-1 1,-1 2,-1 0,0 0,0 0,0l4 0 0 13c0,1 -1,1 -2,1zm0 2l0 0c0,0 0,0 0,0 2,0 3,-2 3,-3l0 -13c0,-1 0,-1 0,-1 0,0 -1,-1 -1,-1l-4 0 0 0c-1,0 -2,1 -3,2 0,0 0,1 0,2l-1 5c0,3 2,5 3,7l1 1c1,0 1,1 2,1z"/>
   <path class="fil2" d="M21 15c1,0 2,1 2,1 1,1 1,1 1,2l0 5c0,3 -1,5 -3,7l-1 1c0,0 -1,0 -1,0 -1,0 -1,0 -2,-1 0,0 -1,0 -1,-1l1 -13c0,0 0,-1 0,-1 0,0 0,0 0,0 0,0 4,0 4,0z"/>
   <path class="fil1" d="M19 30c-1,0 -2,0 -2,-1l0 -13 4 0c1,0 1,0 2,1 0,0 0,1 0,1l0 5c0,3 -1,5 -2,6l-1 1c-1,0 -1,0 -1,0zm0 2l0 0c0,0 0,0 0,0 0,0 1,0 2,-1l1 -1c1,-2 2,-4 2,-7l0 -5c1,-1 0,-2 0,-2 -1,-1 -2,-2 -3,-2l-4 0c0,0 0,0 0,0 0,0 -1,1 -1,2l0 13c0,1 0,1 1,2 0,0 1,1 2,1z"/>
   <path class="fil1" d="M17 21l0 -5 4 0c1,0 1,0 2,1 -2,2 -4,3 -6,4z"/>
   <path class="fil1" d="M6 17c1,-1 1,-1 2,-1l4 0 0 5c-2,-1 -4,-2 -6,-4z"/>
   <path class="fil3" d="M17 21l0 -5 4 0c1,0 1,0 2,1 -2,2 -4,3 -6,4z"/>
   <path class="fil3" d="M6 17c1,-1 1,-1 2,-1l4 0 0 5c-2,-1 -4,-2 -6,-4z"/>
   <path class="fil2" d="M15 4c2,0 4,1 6,3 1,1 1,3 1,5 0,4 -3,7 -7,7l0 0c-3,0 -4,-1 -6,-2 -1,-1 -2,-3 -2,-5 0,-2 0,-4 1,-5 2,-2 4,-3 7,-3l0 0z"/>
   <path class="fil1" d="M15 19c0,0 0,0 0,0 -4,0 -7,-4 -7,-7 0,-2 0,-3 1,-5 1,-1 3,-2 6,-2 0,0 0,0 0,0 2,0 4,1 5,2 1,2 2,3 1,5 0,3 -3,7 -6,7zm0 1l0 0 0 0c2,0 4,-1 5,-2 2,-2 3,-4 3,-6 0,-2 -1,-4 -2,-5 -1,-2 -4,-4 -6,-4l0 0c-3,0 -5,1 -7,4 -1,1 -2,3 -2,5 0,4 4,8 8,8l1 0z"/>
   <path class="fil3" d="M9 7c1,-1 3,-2 6,-2 2,0 4,1 5,2 0,1 -1,1 -1,1l-4 0c0,0 0,0 0,0 -1,0 -1,0 -1,0l-4 0c0,0 -1,0 -1,-1z"/>
   <path class="fil4" d="M11 11c1,0 1,0 1,1 1,1 2,2 3,2l0 0c1,0 1,-1 2,-2 0,-1 0,-1 1,-1 0,0 0,0 0,0 1,0 2,1 1,2 0,2 -2,4 -4,4l0 0c-3,0 -5,-2 -5,-4 -1,-1 0,-2 1,-2 0,0 0,0 0,0 0,0 0,0 0,0z"/>
   <path class="fil1" d="M15 16c0,0 0,0 0,0 -2,0 -4,-2 -5,-3 0,-1 0,-1 1,-1 0,0 0,0 0,0 0,0 0,0 0,0 0,0 1,0 1,0 0,1 1,2 3,2 0,0 0,0 0,0 1,0 2,0 2,-2 1,0 1,0 1,0 0,0 0,0 0,0 1,0 1,0 1,1 -1,1 -2,3 -4,3zm0 1l0 0c2,0 4,-2 5,-4 0,-1 0,-1 0,-2 0,0 -1,-1 -1,-1 -1,0 -1,0 -1,0 -1,0 -2,1 -2,2 0,1 -1,1 -1,1l0 0c-1,0 -2,0 -2,-1 0,-1 -1,-2 -2,-2 0,0 0,0 0,0 0,0 0,0 -1,0 -1,1 -1,2 -1,3 1,2 3,4 6,4l0 0z"/>
   <path class="fil5" d="M10 27c0,0 0,0 0,0 -1,0 -1,0 -1,0l0 -4c0,0 0,0 1,0 0,0 0,0 0,0l0 4z"/>
   <path class="fil2" d="M17 2c2,0 3,1 3,2l0 1c0,1 -1,1 -1,1 0,0 -4,0 -4,0 0,0 0,0 0,0 0,0 0,-1 0,-1l0 -1c0,-1 1,-2 2,-2 0,0 0,0 0,0z"/>
   <path class="fil1" d="M19 5l-4 0 0 -1c0,-1 1,-2 2,-2 0,0 0,0 0,0l0 0c1,0 2,1 2,2l0 1zm0 2l0 0c1,0 1,-1 1,-2l0 -1c0,-1 0,-2 -1,-2 0,-1 -1,-1 -2,-1l0 0 0 0c-2,0 -3,1 -3,3l0 1c0,1 0,1 0,1 1,0 1,1 1,1l4 0c0,0 0,0 0,0z"/>
   <path class="fil2" d="M12 2c1,0 1,0 2,0 0,1 0,1 0,2l0 1c0,1 0,1 0,1 0,0 -4,0 -4,0 0,0 0,0 0,0 0,0 0,-1 0,-1l0 -1c0,-1 1,-2 2,-2 0,0 0,0 0,0z"/>
   <path class="fil1" d="M14 5l-4 0 0 -1c0,-1 1,-2 2,-2 0,0 0,0 0,0l0 0c1,0 2,1 2,2l0 1zm0 2l0 0c1,0 1,-1 1,-2l0 -1c0,-2 -1,-3 -3,-3l0 0 0 0c-2,0 -3,1 -3,3l0 1c0,1 0,1 0,1 1,0 1,1 1,1l4 0c0,0 0,0 0,0z"/>
   <path class="fil1" d="M15 7c0,1 0,1 0,1 -1,0 -1,0 -1,-1l0 -1c0,0 0,0 1,0 0,0 0,0 0,0l0 1z"/>
   <path class="fil1" d="M22 22c0,0 -1,0 -1,-1 0,0 1,-1 1,-1l1 0c1,0 1,1 1,1 0,1 0,1 -1,1l-1 0z"/>
   <path class="fil1" d="M22 24c0,0 -1,0 -1,0 0,-1 1,-1 1,-1l1 0c1,0 1,0 1,1 0,0 0,0 -1,0l-1 0z"/>
   <path class="fil1" d="M6 22c0,0 -1,-1 -1,-1 0,0 1,-1 1,-1l1 0c0,0 1,1 1,1 0,0 -1,1 -1,1l-1 0z"/>
   <path class="fil1" d="M6 24c0,0 -1,0 -1,0 0,-1 1,-1 1,-1l1 0c0,0 1,0 1,1 0,0 -1,0 -1,0l-1 0z"/>
  </g>
 </g>
</svg>
