<?xml version="1.0" encoding="UTF-8"?>
<!DOCTYPE svg PUBLIC "-//W3C//DTD SVG 1.1//EN" "http://www.w3.org/Graphics/SVG/1.1/DTD/svg11.dtd">
<!-- Creator: CorelDRAW Home & Student X7 -->
<svg xmlns="http://www.w3.org/2000/svg" xml:space="preserve" width="32px" height="32px" version="1.1" style="shape-rendering:geometricPrecision; text-rendering:geometricPrecision; image-rendering:optimizeQuality; fill-rule:evenodd; clip-rule:evenodd"
viewBox="0 0 32 32"
 xmlns:xlink="http://www.w3.org/1999/xlink">
 <defs>
  <style type="text/css">
   <![CDATA[
    .fil1 {fill:#231F1F;fill-rule:nonzero}
    .fil5 {fill:#6BB6DD;fill-rule:nonzero}
    .fil6 {fill:#9AD1E8;fill-rule:nonzero}
    .fil4 {fill:#B1B1AF;fill-rule:nonzero}
    .fil3 {fill:#CDCDCD;fill-rule:nonzero}
    .fil2 {fill:#D63B60;fill-rule:nonzero}
    .fil7 {fill:#F2F2F2;fill-rule:nonzero}
    .fil0 {fill:#FB5D75;fill-rule:nonzero}
   ]]>
  </style>
 </defs>
 <g id="Layer_x0020_1">
  <metadata id="CorelCorpID_0Corel-Layer"/>
  <g id="_351128288">
   <path class="fil0" d="M5 2c0,0 0,0 1,1l8 8c0,0 0,0 0,0 0,0 0,1 0,1l-3 3c0,0 -1,0 -1,0 0,0 0,0 0,0l-7 -6c0,-1 -1,-2 -1,-3 0,-2 1,-3 1,-3 1,-1 1,-1 2,-1z"/>
   <path class="fil1" d="M10 14l-6 -6 0 0c-1,-1 -1,-4 0,-5 0,0 0,0 1,0 0,0 0,0 0,0l3 3 5 5 -3 3zm0 2l0 0c1,0 1,0 1,-1l3 -3c1,0 1,-1 0,-2l-5 -5 -3 -3c0,0 -1,-1 -1,-1 -1,0 -2,1 -2,1 -2,2 -2,5 0,7l0 0 6 6c1,1 1,1 1,1z"/>
   <path class="fil2" d="M4 8c0,0 1,0 1,0 0,0 0,0 1,0 0,0 1,-1 2,-2l0 0 5 5 -3 3 -6 -6z"/>
   <path class="fil0" d="M27 2c1,0 1,0 2,1 1,1 1,4 0,6l-7 6c0,0 0,0 0,0 0,0 -1,0 -1,0l-3 -3c0,-1 0,-1 0,-1l8 -8c1,-1 1,-1 1,-1z"/>
   <path class="fil1" d="M22 14l-3 -3 8 -8c0,0 0,0 0,0 1,0 1,0 1,0 1,1 1,4 0,5l-6 6zm0 2l0 0c0,0 0,0 1,-1l6 -6c2,-2 2,-5 0,-7 0,0 -1,-1 -2,-1 0,0 -1,1 -1,1l-8 8c-1,1 -1,2 0,2l3 3c0,1 0,1 1,1z"/>
   <path class="fil2" d="M22 14l-3 -3 5 -5 0 0c1,1 2,2 2,2 0,0 0,0 0,0 1,0 1,0 1,0l0 0c0,0 1,0 1,0l-6 6z"/>
   <polygon class="fil2" points="22,21 22,17 "/>
   <path class="fil3" d="M19 1c1,0 2,1 2,2l0 1c0,1 0,1 -1,1l-3 0c-1,0 -1,0 -1,-1l0 -1c0,-1 1,-2 2,-2l1 0z"/>
   <path class="fil1" d="M17 4l0 -1c0,-1 1,-2 1,-2l1 0c0,0 1,1 1,2l0 1 -3 0zm0 2l0 0 3 0c1,0 2,-1 2,-2l0 -1c0,-2 -2,-3 -3,-3l-1 0c-1,0 -3,1 -3,3l0 1c0,1 1,2 2,2z"/>
   <path class="fil3" d="M14 1c1,0 2,1 2,2l0 1c0,1 0,1 -1,1l-3 0c-1,0 -1,0 -1,-1l0 -1c0,-1 1,-2 2,-2l1 0z"/>
   <path class="fil1" d="M12 4l0 -1c0,-1 1,-2 1,-2l1 0c0,0 1,1 1,2l0 1 -3 0zm0 2l0 0 3 0c1,0 2,-1 2,-2l0 -1c0,-2 -2,-3 -3,-3l-1 0c-1,0 -3,1 -3,3l0 1c0,1 1,2 2,2z"/>
   <path class="fil3" d="M21 4c0,0 1,1 1,1l1 2c0,2 2,3 3,3 0,0 1,0 1,0l0 0c0,0 1,0 1,1 0,1 -1,1 -1,2 0,2 -1,3 -2,3 -2,1 -3,3 -4,4 -1,2 -1,3 -2,4l-1 6c0,1 -1,1 -2,1 -1,0 -2,0 -2,-1l-1 -6c-1,-1 -1,-2 -2,-4 -1,-1 -2,-2 -3,-3 -2,-1 -2,-2 -3,-4 0,-1 0,-2 0,-2 0,-1 0,-1 0,-1 0,0 1,0 1,0 1,0 3,-1 3,-3l1 -2c0,0 1,-1 1,-1l10 0z"/>
   <path class="fil1" d="M16 31c0,0 -1,-1 -1,-1l-2 -6c0,-1 -1,-3 -1,-4 -1,-2 -3,-3 -4,-4 -1,-1 -2,-2 -2,-3 -1,-1 -1,-2 -1,-2l0 0c1,0 1,0 1,-1 2,0 3,-1 4,-3l1 -2 10 0 1 2c1,2 2,3 4,3 0,1 1,1 1,1l0 0c0,0 0,1 -1,2 0,1 -1,2 -2,3 -1,1 -3,2 -4,4 0,1 -1,3 -1,4l-2 6c0,0 -1,1 -1,1zm0 1l0 0c1,0 2,-1 2,-2l2 -6c0,-1 1,-2 2,-3 0,-2 2,-3 3,-4 1,-1 2,-2 3,-3 0,-1 0,-2 0,-3 0,-1 0,-2 -1,-2l0 0c0,0 -1,0 -1,0 -1,0 -2,-1 -3,-2l-1 -2c0,-1 0,-1 -1,-1l-10 0c-1,0 -1,0 -1,1l-1 2c-1,1 -2,2 -3,2 0,0 -1,0 -1,0 0,0 -1,1 -1,2 0,1 0,2 0,2 1,2 2,3 3,4 2,1 3,2 3,4 1,1 2,2 2,3l2 6c0,1 1,2 2,2z"/>
   <path class="fil4" d="M6 13l3 -3c0,0 0,0 0,0 1,-2 2,-4 4,-5l6 0c2,1 4,3 4,5l3 3c0,1 -1,2 -2,3 -1,1 -3,2 -4,4l-1 -1c-1,0 -2,0 -3,0 -1,0 -2,0 -3,0l-1 1c-1,-2 -3,-3 -4,-4 -1,-1 -2,-2 -2,-3z"/>
   <path class="fil3" d="M21 11c0,0 1,0 1,0l6 6c1,1 1,4 0,5 -1,1 -1,1 -2,1 0,0 0,0 -1,-1l-4 -4 -3 -3c0,0 0,0 0,-1 0,0 0,0 0,0l3 -3c0,0 0,0 0,0z"/>
   <path class="fil1" d="M26 22c0,0 0,0 0,0l-5 -5 -3 -3 3 -2 6 5c1,2 1,4 0,5 0,0 0,0 -1,0zm0 2l0 0c1,0 2,-1 2,-1 2,-2 2,-5 0,-7l-6 -5c0,-1 0,-1 -1,-1 0,0 0,0 -1,1l-3 3c0,0 0,0 0,0 0,1 0,1 0,1l3 3 5 5c0,0 1,1 1,1z"/>
   <path class="fil3" d="M11 11c0,0 0,0 0,0l3 3c0,0 0,1 0,1l-7 7c-1,1 -1,1 -1,1 -1,0 -1,0 -2,-1 -1,-1 -1,-4 0,-5l4 -4 2 -2c0,0 1,0 1,0z"/>
   <path class="fil1" d="M6 22c-1,0 -1,0 -1,0 -1,-1 -1,-3 0,-5l4 -4 2 -1 3 2 -3 3 -5 5c0,0 0,0 0,0zm0 2l0 0c0,0 1,-1 1,-1l5 -5 3 -3c0,0 0,0 0,-1 0,0 0,0 0,0l-3 -3c-1,-1 -1,-1 -1,-1 -1,0 -1,0 -1,1l-2 2 -4 3c-2,2 -2,5 0,7 0,0 1,1 2,1z"/>
   <path class="fil4" d="M21 17l-3 -3 3 -2 2 2c0,1 -1,2 -2,3z"/>
   <path class="fil4" d="M9 13l2 -1 3 2 -3 3c-1,-1 -2,-2 -2,-4z"/>
   <path class="fil5" d="M16 6c3,0 6,3 6,6 0,3 -3,6 -6,6 -3,0 -5,-3 -5,-6 0,-3 2,-6 5,-6z"/>
   <path class="fil1" d="M16 17c-3,0 -5,-2 -5,-5 0,-3 2,-5 5,-5 3,0 5,2 5,5 0,3 -2,5 -5,5zm0 1l0 0c4,0 6,-3 6,-6 0,-3 -2,-6 -6,-6 -3,0 -6,3 -6,6 0,3 3,6 6,6z"/>
   <path class="fil6" d="M16 14c0,0 1,1 1,1 0,0 -1,0 -1,0 -1,0 -2,0 -2,-1 -1,0 -1,-1 -1,-2 0,0 0,0 0,0 1,0 1,0 1,0 0,1 0,1 0,2 1,0 1,0 2,0z"/>
   <path class="fil7" d="M16 25c0,0 0,1 0,1 0,0 -1,0 -1,-1 0,0 0,-2 -1,-3 0,-1 0,-1 0,-1 0,0 1,0 1,0 1,2 1,4 1,4z"/>
  </g>
 </g>
</svg>
