<?xml version="1.0" encoding="utf-8"?>
<!-- Generator: Adobe Illustrator 18.0.0, SVG Export Plug-In . SVG Version: 6.00 Build 0)  -->
<!DOCTYPE svg PUBLIC "-//W3C//DTD SVG 1.1//EN" "http://www.w3.org/Graphics/SVG/1.1/DTD/svg11.dtd">
<svg version="1.1"
	 id="Layer_1" image-rendering="optimizeQuality" text-rendering="geometricPrecision" shape-rendering="geometricPrecision"
	 xmlns="http://www.w3.org/2000/svg" xmlns:xlink="http://www.w3.org/1999/xlink" x="0px" y="0px" width="16px" height="16px"
	 viewBox="1267 1642 16 16" enable-background="new 1267 1642 16 16" xml:space="preserve">
<g id="Layer_x0020_1">
	<g id="_308194120">
		<path fill="#FB5D75" d="M1269,1643c0.2,0,0.4,0.1,0.6,0.2l4.3,4.1c0.1,0.1,0.1,0.1,0.1,0.2c0,0.1,0,0.2-0.1,0.2l-1.7,1.6
			c-0.1,0.1-0.2,0.1-0.3,0.1c-0.1,0-0.2,0-0.3-0.1l-3.3-3.1c-0.4-0.4-0.7-0.9-0.7-1.5s0.2-1.1,0.7-1.5
			C1268.6,1643.1,1268.8,1643,1269,1643z"/>
		<path fill="#231F1F" d="M1272,1649.2l-3.2-3l-0.1-0.1c-0.7-0.7-0.7-1.8,0-2.5c0.1-0.1,0.2-0.1,0.3-0.1c0.1,0,0.2,0,0.3,0.1
			l1.4,1.3l2.9,2.8L1272,1649.2z M1272,1649.9L1272,1649.9c0.2,0,0.4-0.1,0.5-0.2l1.7-1.6c0.3-0.3,0.3-0.7,0-1l-2.9-2.8l-1.4-1.3
			c-0.2-0.2-0.5-0.3-0.8-0.3c-0.3,0-0.6,0.1-0.8,0.3c-1,1-1,2.5,0,3.5l0.1,0.1l3.2,3C1271.6,1649.8,1271.8,1649.9,1272,1649.9z"/>
		<path fill="#D63B60" d="M1268.8,1646.2c0.2-0.1,0.4-0.1,0.6-0.1c0.1,0,0.1,0,0.2,0c0.5-0.1,0.9-0.4,1.1-0.8l0.2-0.4l2.9,2.8
			l-1.7,1.6L1268.8,1646.2z"/>
		<path fill="#FB5D75" d="M1281,1643c0.2,0,0.4,0.1,0.6,0.2c0.9,0.8,0.9,2.2,0,3l-3.3,3.1c-0.1,0.1-0.2,0.1-0.3,0.1
			c-0.1,0-0.2,0-0.3-0.1l-1.7-1.6c-0.1-0.1-0.1-0.4,0-0.5l4.3-4.1C1280.6,1643.1,1280.8,1643,1281,1643z"/>
		<path fill="#231F1F" d="M1278,1649.2l-1.7-1.6l4.3-4.1c0.1-0.1,0.2-0.1,0.3-0.1c0.1,0,0.2,0,0.3,0.1c0.7,0.7,0.7,1.8,0,2.5
			L1278,1649.2z M1278,1649.9L1278,1649.9c0.2,0,0.4-0.1,0.5-0.2l3.3-3.1c1-1,1-2.5,0-3.5c-0.2-0.2-0.5-0.3-0.9-0.3
			s-0.6,0.1-0.8,0.3l-4.3,4.1c-0.3,0.3-0.3,0.7,0,1l1.7,1.6C1277.7,1649.8,1277.8,1649.9,1278,1649.9z"/>
		<path fill="#D63B60" d="M1278,1649.2l-1.7-1.6l2.9-2.8l0.2,0.4c0.2,0.4,0.6,0.7,1.1,0.8h0c0.1,0,0.1,0,0.2,0h0.1
			c0.2,0,0.4,0,0.5,0.1L1278,1649.2z"/>
		<path fill="#D63B60" d="M1278.4,1652.7v-2V1652.7z"/>
		<path fill="#CDCDCD" d="M1276.3,1642.3c0.7,0,1.2,0.5,1.2,1.2v0.6c0,0.2-0.2,0.3-0.4,0.3h-1.8c-0.2,0-0.4-0.2-0.4-0.3v-0.6
			C1275.1,1642.9,1275.6,1642.3,1276.3,1642.3L1276.3,1642.3z"/>
		<path fill="#231F1F" d="M1275.4,1644.1v-0.6c0-0.4,0.4-0.8,0.9-0.8h0.1c0.5,0,0.9,0.4,0.9,0.8v0.6H1275.4z M1275.4,1644.8
			L1275.4,1644.8h1.8c0.4,0,0.7-0.3,0.7-0.7v-0.6c0-0.8-0.7-1.5-1.6-1.5h-0.1c-0.9,0-1.6,0.7-1.6,1.5v0.6
			C1274.7,1644.5,1275,1644.8,1275.4,1644.8z"/>
		<path fill="#CDCDCD" d="M1273.7,1642.3c0.7,0,1.2,0.5,1.2,1.2v0.6c0,0.2-0.2,0.3-0.4,0.3h-1.8c-0.2,0-0.4-0.2-0.4-0.3v-0.6
			C1272.4,1642.9,1273,1642.3,1273.7,1642.3L1273.7,1642.3z"/>
		<path fill="#231F1F" d="M1272.8,1644.1v-0.6c0-0.4,0.4-0.8,0.9-0.8h0.1c0.5,0,0.9,0.4,0.9,0.8v0.6H1272.8z M1272.8,1644.8
			L1272.8,1644.8h1.8c0.4,0,0.7-0.3,0.7-0.7v-0.6c0-0.8-0.7-1.5-1.6-1.5h-0.1c-0.9,0-1.6,0.7-1.6,1.5v0.6
			C1272.1,1644.5,1272.4,1644.8,1272.8,1644.8z"/>
		<path fill="#CDCDCD" d="M1277.7,1644.2c0.1,0,0.3,0.1,0.3,0.2l0.5,1.2c0.3,0.7,1,1.2,1.8,1.3c0.1,0,0.2,0,0.4,0h0.1
			c0.2,0,0.4,0.2,0.4,0.3c0,0.5-0.1,1-0.3,1.4c-0.3,0.6-0.7,1.1-1.3,1.5c-0.8,0.5-1.4,1.2-1.9,2c-0.4,0.6-0.7,1.2-0.8,1.9l-0.8,2.9
			c-0.1,0.4-0.5,0.7-1,0.7s-0.8-0.3-1-0.7l-0.8-2.9c-0.2-0.7-0.5-1.3-0.8-1.9c-0.5-0.7-1.1-1.4-1.8-1.9c-0.6-0.4-1.1-1-1.3-1.7
			c-0.2-0.4-0.3-0.9-0.3-1.3c0-0.2,0.2-0.3,0.4-0.3c0.1,0,0.2,0,0.3,0c0.8-0.1,1.5-0.6,1.8-1.3l0.5-1.2c0.1-0.1,0.2-0.2,0.3-0.2
			H1277.7z"/>
		<path fill="#231F1F" d="M1275,1657.3c-0.3,0-0.5-0.1-0.6-0.4l-0.8-2.9c-0.2-0.7-0.5-1.4-0.9-2c-0.5-0.8-1.1-1.4-1.9-2
			c-0.6-0.4-1-0.9-1.2-1.5c-0.2-0.4-0.2-0.8-0.2-1.2l0,0c0.1,0,0.2,0,0.3,0c0.9-0.1,1.7-0.7,2.1-1.5l0.5-1.2h5.4l0.5,1.2
			c0.4,0.8,1.2,1.4,2.1,1.5c0.1,0,0.3,0,0.4,0h0.1c0,0.4-0.1,0.9-0.3,1.3c-0.2,0.5-0.6,1-1.1,1.4c-0.8,0.6-1.5,1.3-2,2.1
			c-0.4,0.6-0.7,1.3-0.9,2l-0.8,2.9C1275.5,1657.2,1275.3,1657.3,1275,1657.3z M1275,1658L1275,1658c0.6,0,1.1-0.4,1.3-0.9l0.8-2.9
			c0.2-0.6,0.4-1.2,0.8-1.8c0.5-0.7,1.1-1.4,1.8-1.9c0.6-0.4,1.1-1,1.4-1.6c0.2-0.5,0.3-1,0.3-1.6c0-0.4-0.3-0.7-0.7-0.7h-0.1
			c-0.1,0-0.2,0-0.3,0c-0.7-0.1-1.3-0.5-1.5-1.1l-0.5-1.2c-0.1-0.3-0.4-0.4-0.7-0.4h-5.4c-0.3,0-0.6,0.2-0.7,0.4l-0.5,1.2
			c-0.3,0.6-0.8,1-1.5,1.1c-0.1,0-0.2,0-0.3,0c-0.4,0-0.7,0.3-0.7,0.7c0,0.5,0.1,1,0.3,1.5c0.3,0.7,0.8,1.4,1.5,1.8
			c0.7,0.5,1.3,1.1,1.7,1.8c0.4,0.5,0.6,1.2,0.8,1.8l0.8,2.9C1273.9,1657.6,1274.4,1658,1275,1658z"/>
		<path fill="#B1B1AF" d="M1269.6,1648.5l1.7-1.6c0,0,0,0,0,0c0.4-1.1,1.2-1.9,2.3-2.3h2.9c1.1,0.4,2,1.3,2.3,2.5l1.6,1.6
			c-0.2,0.5-0.6,1-1.1,1.4c-0.8,0.6-1.5,1.3-2,2.1l-0.7-0.6c-0.5,0.2-1,0.3-1.6,0.3c-0.6,0-1.2-0.1-1.7-0.4l-0.7,0.7
			c-0.5-0.8-1.1-1.4-1.9-2C1270.3,1649.6,1269.8,1649.1,1269.6,1648.5z"/>
		<path fill="#CDCDCD" d="M1277.8,1647.4c0.1,0,0.2,0,0.3,0.1l3,2.9c0.8,0.8,0.8,2,0,2.8c-0.1,0.1-0.3,0.2-0.6,0.2
			c-0.2,0-0.4-0.1-0.6-0.2l-2.4-2.3l-1.5-1.4c-0.1-0.1-0.1-0.2-0.1-0.2c0-0.1,0-0.2,0.1-0.2l1.5-1.5
			C1277.6,1647.5,1277.7,1647.4,1277.8,1647.4z"/>
		<path fill="#231F1F" d="M1280.5,1653.1c-0.1,0-0.2,0-0.3-0.1l-2.4-2.3l-1.5-1.4l1.5-1.5l3,2.9c0.7,0.6,0.7,1.7,0,2.3
			C1280.8,1653.1,1280.6,1653.1,1280.5,1653.1z M1280.5,1653.8L1280.5,1653.8c0.3,0,0.6-0.1,0.8-0.3c1-0.9,1-2.4,0-3.3l-3.1-2.9
			c-0.1-0.1-0.3-0.2-0.5-0.2c-0.2,0-0.4,0.1-0.5,0.2l-1.5,1.5c-0.1,0.1-0.2,0.3-0.2,0.5c0,0.2,0.1,0.4,0.2,0.5l1.5,1.4l2.4,2.3
			C1279.9,1653.7,1280.2,1653.8,1280.5,1653.8z"/>
		<path fill="#CDCDCD" d="M1272.2,1647.4c0.1,0,0.2,0,0.3,0.1l1.5,1.5c0.1,0.1,0.1,0.4,0,0.5l-4,3.8c-0.1,0.1-0.4,0.2-0.6,0.2
			c-0.2,0-0.4-0.1-0.6-0.2c-0.8-0.8-0.8-2,0-2.8l2-1.9l1-0.9C1272,1647.5,1272.1,1647.4,1272.2,1647.4z"/>
		<path fill="#231F1F" d="M1269.5,1653.1c-0.1,0-0.2,0-0.3-0.1c-0.7-0.6-0.7-1.7,0-2.3l2-1.9l1-1l1.5,1.5l-1.5,1.4l-2.5,2.4
			C1269.7,1653.1,1269.6,1653.1,1269.5,1653.1z M1269.5,1653.8L1269.5,1653.8c0.3,0,0.6-0.1,0.8-0.3l2.5-2.4l1.5-1.4
			c0.1-0.1,0.2-0.3,0.2-0.5c0-0.2-0.1-0.4-0.2-0.5l-1.5-1.5c-0.1-0.1-0.3-0.2-0.5-0.2c-0.2,0-0.4,0.1-0.5,0.2l-1,0.9l-2,1.9
			c-1,0.9-1,2.4,0,3.3C1268.9,1653.7,1269.2,1653.8,1269.5,1653.8z"/>
		<path fill="#B1B1AF" d="M1277.8,1650.7l-1.5-1.4l1.5-1.5l1.1,1C1278.7,1649.5,1278.3,1650.2,1277.8,1650.7z"/>
		<path fill="#B1B1AF" d="M1271.2,1648.7l1-1l1.5,1.5l-1.5,1.4C1271.7,1650.1,1271.4,1649.5,1271.2,1648.7z"/>
		<path fill="#6BB6DD" d="M1275.1,1645.2c1.6,0,3,1.3,3,2.8s-1.3,2.8-3,2.8c-1.6,0-3-1.3-3-2.8S1273.4,1645.2,1275.1,1645.2z"/>
		<path fill="#231F1F" d="M1275.1,1650.5c-1.4,0-2.6-1.1-2.6-2.5s1.2-2.5,2.6-2.5c1.4,0,2.6,1.1,2.6,2.5
			S1276.5,1650.5,1275.1,1650.5z M1275.1,1651.1L1275.1,1651.1c1.8,0,3.3-1.4,3.3-3.2s-1.5-3.1-3.3-3.1c-1.8,0-3.3,1.4-3.3,3.1
			S1273.2,1651.1,1275.1,1651.1z"/>
		<path fill="#9AD1E8" d="M1275.1,1649.1c0.1,0,0.2,0.1,0.2,0.2c0,0.1-0.1,0.2-0.2,0.2c-0.5,0-0.9-0.2-1.2-0.5
			c-0.3-0.3-0.5-0.7-0.5-1.2c0-0.1,0.1-0.2,0.3-0.2c0.1,0,0.3,0.1,0.3,0.2c0,0.3,0.1,0.6,0.4,0.8
			C1274.4,1649,1274.7,1649.1,1275.1,1649.1z"/>
		<path fill="#F2F2F2" d="M1275.1,1654.6c0,0.1-0.1,0.3-0.2,0.3c-0.1,0-0.3,0-0.3-0.2c0,0-0.3-1.2-0.8-1.9c-0.1-0.1,0-0.3,0.1-0.3
			c0.1-0.1,0.3,0,0.4,0.1C1274.8,1653.3,1275.1,1654.6,1275.1,1654.6z"/>
	</g>
</g>
</svg>
