<?xml version="1.0" encoding="UTF-8"?>
<!DOCTYPE svg PUBLIC "-//W3C//DTD SVG 1.1//EN" "http://www.w3.org/Graphics/SVG/1.1/DTD/svg11.dtd">
<!-- Creator: CorelDRAW Home & Student X7 -->
<svg xmlns="http://www.w3.org/2000/svg" xml:space="preserve" width="102306px" height="32px" version="1.1" style="shape-rendering:geometricPrecision; text-rendering:geometricPrecision; image-rendering:optimizeQuality; fill-rule:evenodd; clip-rule:evenodd"
viewBox="0 0 102306 112889"
 xmlns:xlink="http://www.w3.org/1999/xlink">
 <defs>
  <style type="text/css">
   <![CDATA[
    .fil1 {fill:#101219;fill-rule:nonzero}
    .fil3 {fill:#5DF6F6;fill-rule:nonzero}
    .fil2 {fill:#7E93AF;fill-rule:nonzero}
    .fil0 {fill:#94A5C9;fill-rule:nonzero}
    .fil4 {fill:#BECFE8;fill-rule:nonzero}
    .fil5 {fill:#C6FFFC;fill-rule:nonzero}
   ]]>
  </style>
 </defs>
 <g id="Layer_x0020_1">
  <metadata id="CorelCorpID_0Corel-Layer"/>
  <g id="_281005720">
   <path class="fil0" d="M51153 3092c18159,0 29822,6284 36410,11555 7205,5767 10055,11521 10171,11767 284,579 209,1267 -195,1771 -321,404 -805,633 -1309,633 -125,0 -250,-12 -371,-41 -258,-59 -512,-113 -766,-167 -1792,-358 -3617,-542 -5426,-542 -13750,0 -25672,10397 -27734,24181l-7872 52536c-221,1471 -1416,2504 -2908,2504 -1492,0 -2688,-1033 -2909,-2508l-7867 -52532c-2067,-13784 -13988,-24181 -27735,-24181 0,0 0,0 0,0 -1808,0 -3637,184 -5429,542 -250,54 -508,108 -767,167 -121,29 -246,41 -371,41 -504,0 -987,-229 -1312,-633 -400,-504 -475,-1192 -192,-1771 117,-246 2963,-6005 10171,-11767 6588,-5271 18256,-11555 36411,-11555z"/>
   <path class="fil1" d="M51153 105614c-571,0 -1146,-358 -1250,-1079l-342 -2279 -3075 -20522 -4455 -29731c-2221,-14843 -14967,-25610 -29389,-25610 -1896,0 -3821,188 -5758,575 -267,54 -538,113 -809,175 0,0 10872,-22376 45078,-22376 17105,0 28372,5592 35364,11184 6996,5600 9713,11192 9713,11192 -271,-62 -537,-121 -804,-175 -1938,-387 -3863,-575 -5759,-575 -14425,0 -27168,10767 -29389,25610l-7875 52532c-104,721 -679,1079 -1250,1079zm0 3346l0 0c2304,0 4221,-1650 4563,-3929l7871 -52532c1942,-12972 13155,-22756 26080,-22756 1700,0 3413,171 5101,509 237,50 475,100 721,158 245,54 495,83 741,83 1009,0 1979,-458 2621,-1266 800,-1009 954,-2388 392,-3546 -125,-259 -3138,-6342 -10634,-12343 -4346,-3479 -9342,-6246 -14847,-8225 -6813,-2455 -14417,-3696 -22609,-3696 -8188,0 -15797,1241 -22610,3696 -5504,1979 -10500,4746 -14846,8225 -7501,6001 -10509,12088 -10634,12343 -563,1158 -409,2537 391,3546 642,808 1613,1266 2621,1266 246,0 496,-29 746,-83 242,-58 484,-108 729,-158 1676,-338 3392,-509 5092,-509 12926,0 24135,9784 26081,22756l4450 29730 3075 20522 342 2280c342,2279 2258,3929 4563,3929z"/>
   <path class="fil2" d="M39977 30777l2429 3212c1567,2071 4051,3309 6651,3309l4196 0c2596,0 5084,-1238 6646,-3309l2434 -3212c1087,-1438 1683,-3221 1683,-5026l0 -10738c0,-4596 -3738,-8338 -8334,-8338l-9059 0c-4596,0 -8333,3742 -8333,8338l0 10738c0,1805 600,3588 1687,5026z"/>
   <path class="fil2" d="M46486 81734l0 -50070c0,-850 692,-1537 1537,-1537 850,0 1538,687 1538,1537l0 70592 -3075 -20522z"/>
   <path class="fil2" d="M55820 81734l0 -50070c0,-850 -688,-1537 -1538,-1537 -850,0 -1533,687 -1533,1537l0 70592 3071 -20522z"/>
   <path class="fil3" d="M55682 11151c2129,0 3863,1733 3863,3862l0 10738c0,834 -279,1663 -783,2330l-2430 3212c-725,959 -1875,1534 -3079,1534l-4196 0c-1204,0 -2359,-575 -3084,-1534l-2429 -3212c-504,-667 -779,-1496 -779,-2330l0 -10738c0,-2129 1729,-3862 3858,-3862l9059 0z"/>
   <path class="fil1" d="M49057 31152c-688,0 -1334,-321 -1746,-867l-2429 -3217c-288,-379 -446,-842 -446,-1317l0 -10738c0,-1208 979,-2187 2187,-2187l9059 0c1209,0 2188,979 2188,2187l0 10738c0,475 -154,938 -442,1317l-2429 3217c-417,546 -1063,867 -1746,867l-4196 0zm0 3346l0 0 4196 0c1725,0 3375,-821 4417,-2196l2429 -3213c721,-954 1121,-2142 1121,-3338l0 -10738c0,-3054 -2483,-5537 -5538,-5537l-9059 0c-3050,0 -5533,2483 -5533,5537l0 10738c0,1196 396,2384 1121,3338l2429 3213c1037,1375 2692,2196 4417,2196z"/>
   <polygon class="fil4" points="51153,105614 51153,33202 "/>
   <polygon class="fil1" points="49478,105614 49478,33202 52828,33202 52828,105614 "/>
   <path class="fil2" d="M25426 27431c1613,0 2926,1312 2926,2925l0 9675c0,1613 -1313,2925 -2926,2925 -1612,0 -2925,-1312 -2925,-2925l0 -9675c0,-1613 1313,-2925 2925,-2925z"/>
   <path class="fil1" d="M25426 41281c-691,0 -1250,-558 -1250,-1250l0 -9675c0,-692 559,-1254 1250,-1254 692,0 1255,562 1255,1254l0 9675c0,692 -563,1250 -1255,1250zm0 3351l0 0c2538,0 4601,-2063 4601,-4601l0 -9675c0,-2538 -2063,-4600 -4601,-4600 -2537,0 -4600,2062 -4600,4600l0 9675c0,2538 2063,4601 4600,4601z"/>
   <path class="fil2" d="M14613 24526c1613,0 2925,1313 2925,2925l0 9676c0,1613 -1312,2925 -2925,2925 -1612,0 -2925,-1312 -2925,-2925l0 -9676c0,-1612 1313,-2925 2925,-2925z"/>
   <path class="fil1" d="M14613 38381c-691,0 -1254,-562 -1254,-1254l0 -9676c0,-691 563,-1250 1254,-1250 692,0 1250,559 1250,1250l0 9676c0,692 -558,1254 -1250,1254zm0 3346l0 0c2538,0 4601,-2062 4601,-4600l0 -9676c0,-2537 -2063,-4600 -4601,-4600 -2537,0 -4600,2063 -4600,4600l0 9676c0,2538 2063,4600 4600,4600z"/>
   <path class="fil2" d="M76879 27431c1617,0 2930,1312 2930,2925l0 9675c0,1613 -1313,2925 -2930,2925 -1612,0 -2925,-1312 -2925,-2925l0 -9675c0,-1613 1313,-2925 2925,-2925z"/>
   <path class="fil1" d="M76879 41281c-692,0 -1250,-558 -1250,-1250l0 -9675c0,-692 558,-1254 1250,-1254 692,0 1254,562 1254,1254l0 9675c0,692 -562,1250 -1254,1250zm0 3351l0 0c2538,0 4600,-2063 4600,-4601l0 -9675c0,-2538 -2062,-4600 -4600,-4600 -2533,0 -4600,2062 -4600,4600l0 9675c0,2538 2067,4601 4600,4601z"/>
   <path class="fil2" d="M87696 24526c1613,0 2926,1313 2926,2925l0 9676c0,1613 -1313,2925 -2926,2925 -1616,0 -2929,-1312 -2929,-2925l0 -9676c0,-1612 1313,-2925 2929,-2925z"/>
   <path class="fil1" d="M87696 38381c-691,0 -1254,-562 -1254,-1254l0 -9676c0,-691 563,-1250 1254,-1250 692,0 1250,559 1250,1250l0 9676c0,692 -558,1254 -1250,1254zm0 3346l0 0c2534,0 4601,-2062 4601,-4600l0 -9676c0,-2537 -2067,-4600 -4601,-4600 -2537,0 -4600,2063 -4600,4600l0 9676c0,2538 2063,4600 4600,4600z"/>
   <path class="fil5" d="M51574 25006c0,925 -750,1675 -1671,1675 -925,0 -1675,-750 -1675,-1675l0 -7401c0,-925 750,-1675 1675,-1675 921,0 1671,750 1671,1675l0 7401z"/>
   <g>
    <path class="fil1" d="M32289 14384c0,-925 750,-1675 1675,-1675 925,0 1675,750 1675,1675l0 1663c0,925 -750,1671 -1675,1671 -925,0 -1675,-746 -1675,-1671l0 -1663z"/>
    <path class="fil1" d="M26810 15759c0,-925 750,-1675 1675,-1675 921,0 1671,750 1671,1675l0 1659c0,925 -750,1675 -1671,1675 -925,0 -1675,-750 -1675,-1675l0 -1659z"/>
    <path class="fil1" d="M21589 17122c0,-921 750,-1671 1671,-1671 925,0 1675,750 1675,1671l0 1662c0,925 -750,1675 -1675,1675 -921,0 -1671,-750 -1671,-1675l0 -1662z"/>
   </g>
   <g>
    <path class="fil1" d="M70200 14384c0,-925 -746,-1675 -1671,-1675 -925,0 -1675,750 -1675,1675l0 1663c0,925 750,1671 1675,1671 925,0 1671,-746 1671,-1671l0 -1663z"/>
    <path class="fil1" d="M75683 15759c0,-925 -750,-1675 -1675,-1675 -925,0 -1675,750 -1675,1675l0 1659c0,925 750,1675 1675,1675 925,0 1675,-750 1675,-1675l0 -1659z"/>
    <path class="fil1" d="M80904 17122c0,-921 -750,-1671 -1675,-1671 -925,0 -1675,750 -1675,1671l0 1662c0,925 750,1675 1675,1675 925,0 1675,-750 1675,-1675l0 -1662z"/>
   </g>
  </g>
 </g>
</svg>
