<?xml version="1.0" encoding="UTF-8"?>
<!DOCTYPE svg PUBLIC "-//W3C//DTD SVG 1.1//EN" "http://www.w3.org/Graphics/SVG/1.1/DTD/svg11.dtd">
<!-- Creator: CorelDRAW Home & Student X7 -->
<svg xmlns="http://www.w3.org/2000/svg" xml:space="preserve" width="29px" height="32px" version="1.1" style="shape-rendering:geometricPrecision; text-rendering:geometricPrecision; image-rendering:optimizeQuality; fill-rule:evenodd; clip-rule:evenodd"
viewBox="0 0 29 32"
 xmlns:xlink="http://www.w3.org/1999/xlink">
 <defs>
  <style type="text/css">
   <![CDATA[
    .fil1 {fill:#101219;fill-rule:nonzero}
    .fil3 {fill:#5DF6F6;fill-rule:nonzero}
    .fil0 {fill:#7E93AF;fill-rule:nonzero}
    .fil2 {fill:#94A5C9;fill-rule:nonzero}
    .fil4 {fill:#C6FFFC;fill-rule:nonzero}
   ]]>
  </style>
 </defs>
 <g id="Layer_x0020_1">
  <metadata id="CorelCorpID_0Corel-Layer"/>
  <g id="_282777936">
   <path class="fil0" d="M8 12c1,0 1,1 1,1l0 10c0,0 0,1 -1,1 0,0 0,-1 0,-1l0 -10c0,0 0,-1 0,-1z"/>
   <path class="fil1" d="M8 23c0,0 0,0 0,0l0 -10c0,0 0,0 0,0 1,0 1,0 1,0l0 10c0,0 0,0 -1,0zm0 1l0 0c1,0 2,0 2,-1l0 -10c0,-1 -1,-1 -2,-1 0,0 -1,0 -1,1l0 10c0,1 1,1 1,1z"/>
   <path class="fil0" d="M21 12c0,0 0,1 0,1l0 10c0,0 0,1 0,1 -1,0 -1,-1 -1,-1l0 -10c0,0 0,-1 1,-1z"/>
   <path class="fil1" d="M21 23c-1,0 -1,0 -1,0l0 -10c0,0 0,0 1,0 0,0 0,0 0,0l0 10c0,0 0,0 0,0zm0 1l0 0c0,0 1,0 1,-1l0 -10c0,-1 -1,-1 -1,-1 -1,0 -2,0 -2,1l0 10c0,1 1,1 2,1z"/>
   <path class="fil2" d="M14 3c1,0 1,0 2,0 0,0 0,0 0,0 1,1 3,3 3,4 0,1 1,1 1,1 0,0 1,0 1,0l3 -3c0,0 0,0 0,0 0,0 0,0 0,0 0,0 0,0 0,0l0 5c0,0 0,1 0,1l-1 1 -1 1c-1,1 -1,2 -2,3 0,6 -3,11 -4,14 0,1 -1,1 -2,1 0,0 -1,0 -1,-1 -1,-3 -4,-8 -4,-14 -1,-1 -1,-2 -2,-3l-1 -1 -1 -1c0,0 0,-1 0,-1l0 -5c0,0 0,0 0,0 0,0 0,0 0,0 0,0 0,0 0,0l2 1 1 2c0,0 1,0 1,0 0,0 1,0 1,-1 0,-1 2,-3 3,-4 0,0 0,0 0,0 0,0 1,0 1,0z"/>
   <path class="fil1" d="M14 31c0,0 0,0 -1,-1 -1,-3 -3,-8 -4,-14 0,-1 -1,-3 -2,-3l0 -1 -2 -2 0 -5 2 2 1 1c0,0 1,0 1,0 0,0 1,0 1,-1 1,-1 2,-2 3,-4 0,0 0,0 0,0 1,0 1,0 1,0 1,0 1,0 2,0 0,0 0,0 0,0 1,2 2,3 3,4 0,1 1,1 1,1 0,0 1,0 1,0l1 -1 2 -2 0 5 -2 2 0 1c-1,0 -2,2 -2,3 -1,6 -3,11 -4,14 -1,1 -1,1 -2,1zm0 1l0 0c1,0 2,-1 2,-2 2,-2 4,-8 5,-14 0,-1 1,-2 1,-3l1 0 1 -2c1,0 1,0 1,-1l0 -5c0,0 0,0 -1,-1 0,0 0,0 0,0 0,0 -1,0 -1,1l-1 1 -2 1c0,0 0,0 0,0 0,0 0,0 0,0 -1,-2 -2,-3 -4,-4 0,0 0,0 0,0 0,0 0,0 0,0 0,-1 -1,-1 -2,-1 0,0 -1,0 -1,1 0,0 0,0 0,0 -2,1 -3,2 -4,4 0,0 0,0 0,0 0,0 0,0 0,0l-2 -1 -1 -1c0,-1 -1,-1 -1,-1 0,0 0,0 0,0 -1,1 -1,1 -1,1l0 5c0,1 0,1 1,1l1 2 1 0c0,1 1,2 1,3 1,6 3,12 5,14 0,1 1,2 1,2z"/>
   <path class="fil0" d="M13 7l0 -4c1,0 2,0 3,0l0 4 -3 0z"/>
   <polygon class="fil0" points="22,12 22,7 24,5 24,10 "/>
   <polygon class="fil0" points="5,10 5,5 7,7 7,12 "/>
   <path class="fil0" d="M12 14c0,1 1,1 2,1 2,0 3,0 3,-1 1,-1 1,-2 1,-3 0,-1 0,-2 -1,-3 0,-1 -1,-2 -3,-2 -1,0 -2,1 -2,2 -1,1 -1,2 -1,3 0,1 0,2 1,3z"/>
   <path class="fil2" d="M24 1c1,0 1,0 1,0 0,1 2,4 2,9 0,3 -2,3 -3,3 0,0 0,0 0,0 0,0 -1,0 -1,-1l0 -10c0,-1 1,-1 1,-1z"/>
   <path class="fil1" d="M24 13c0,0 0,0 0,0 0,0 0,0 0,-1l0 -10c0,0 0,-1 0,-1 0,0 1,1 1,1 0,0 1,3 1,8 0,3 -1,3 -2,3zm0 1l0 0 0 0c1,0 2,-1 2,-1 1,-1 1,-1 1,-3 0,-5 -1,-8 -2,-9 0,0 0,0 -1,0 0,0 -1,0 -1,1l0 10c0,1 1,2 1,2 0,0 0,0 0,0z"/>
   <path class="fil2" d="M5 1c0,0 1,0 1,1l0 10c0,1 -1,1 -1,1 0,0 0,0 0,0 -1,0 -3,0 -3,-3 0,-5 2,-8 2,-9 0,0 0,0 1,0z"/>
   <path class="fil1" d="M5 13c-1,0 -2,0 -2,-3 0,-5 1,-8 1,-8 0,0 1,-1 1,-1 0,0 0,1 0,1l0 10c0,1 0,1 0,1 0,0 0,0 0,0zm0 1l0 0c0,0 0,0 0,0 0,0 1,-1 1,-2l0 -10c0,-1 -1,-1 -1,-1 -1,0 -1,0 -1,0 -1,1 -2,4 -2,9 0,2 0,2 1,3 0,0 1,1 2,1z"/>
   <path class="fil3" d="M14 8c2,0 3,1 3,3 0,2 -1,3 -3,3 -1,0 -2,-1 -2,-3 0,-2 1,-3 2,-3z"/>
   <path class="fil1" d="M14 14c-1,0 -2,-2 -2,-3 0,-2 1,-3 2,-3 2,0 3,1 3,3 0,1 -1,3 -3,3zm0 1l0 0c1,0 2,-1 3,-2 0,0 1,-1 1,-2 0,-1 -1,-2 -1,-3 -1,0 -2,-1 -3,-1 0,0 -1,1 -2,1 0,1 -1,2 -1,3 0,1 1,2 1,2 1,1 2,2 2,2z"/>
   <path class="fil4" d="M14 12c0,0 0,0 0,0 -1,0 -1,0 -1,0l0 -2c0,-1 0,-1 1,-1 0,0 0,0 0,1l0 2z"/>
   <path class="fil2" d="M18 20l-2 6c0,0 1,-2 2,-6z"/>
   <path class="fil1" d="M16 26c0,1 0,1 0,1 0,-1 -1,-1 0,-1 0,0 1,-2 2,-6 0,0 0,-1 0,-1 0,0 0,1 0,1 0,4 -2,6 -2,6z"/>
   <path class="fil2" d="M18 14l0 1c0,0 0,0 0,-1z"/>
   <path class="fil1" d="M19 15c0,0 0,1 -1,1 0,0 0,-1 0,-1 0,0 0,0 0,0 0,0 0,0 0,-1 0,0 0,0 0,0 1,0 1,0 1,0 0,1 0,1 0,1 0,0 0,0 0,0z"/>
   <path class="fil2" d="M13 26l-2 -6c1,4 2,6 2,6z"/>
   <path class="fil1" d="M11 20c0,0 0,-1 0,-1 0,0 0,1 0,1 1,4 2,6 2,6 1,0 0,0 0,1 0,0 0,0 0,-1 0,0 -2,-2 -2,-6z"/>
   <path class="fil2" d="M11 15l0 -1c0,1 0,1 0,1z"/>
   <path class="fil1" d="M10 14c0,0 0,0 1,0 0,0 0,0 0,0 0,1 0,1 0,1 0,0 0,0 0,0 0,0 0,1 0,1 -1,0 -1,-1 -1,-1 0,0 0,0 0,0 0,0 0,0 0,-1z"/>
   <polygon class="fil0" points="14,7 14,3 "/>
   <polygon class="fil1" points="14,7 14,3 15,3 15,7 "/>
   <g>
    <path class="fil1" d="M11 16c0,0 0,0 0,0 0,1 0,1 0,1l-1 0c0,0 0,0 0,-1 0,0 0,0 0,0l1 0z"/>
    <path class="fil1" d="M11 17c0,0 0,0 0,1 0,0 0,0 0,0l-1 0c0,0 0,0 0,0 0,-1 0,-1 0,-1l1 0z"/>
    <path class="fil1" d="M11 18c0,0 0,0 0,1 0,0 0,0 0,0l0 0c-1,0 -1,0 -1,0 0,-1 0,-1 1,-1l0 0z"/>
   </g>
   <g>
    <path class="fil1" d="M18 16c0,0 0,0 0,0 0,1 0,1 0,1l1 0c0,0 0,0 0,-1 0,0 0,0 0,0l-1 0z"/>
    <path class="fil1" d="M18 17c0,0 0,0 0,1 0,0 0,0 0,0l0 0c1,0 1,0 1,0 0,-1 0,-1 -1,-1l0 0z"/>
    <path class="fil1" d="M18 18c0,0 -1,0 -1,1 0,0 1,0 1,0l0 0c0,0 1,0 1,0 0,-1 -1,-1 -1,-1l0 0z"/>
   </g>
   <path class="fil1" d="M3 9c0,0 1,0 1,0 0,0 0,0 0,0l0 4c0,0 0,0 0,0 0,0 -1,0 -1,0l0 -4z"/>
   <path class="fil1" d="M25 9c0,0 0,0 0,0 0,0 1,0 1,0l0 4c0,0 -1,0 -1,0 0,0 0,0 0,0l0 -4z"/>
   <path class="fil1" d="M14 15c0,0 0,-1 1,-1 0,0 0,1 0,1l0 1c0,0 0,0 0,0 -1,0 -1,0 -1,0l0 -1z"/>
  </g>
 </g>
</svg>
