<?xml version="1.0" encoding="UTF-8"?>
<!DOCTYPE svg PUBLIC "-//W3C//DTD SVG 1.1//EN" "http://www.w3.org/Graphics/SVG/1.1/DTD/svg11.dtd">
<!-- Creator: CorelDRAW Home & Student X7 -->
<svg xmlns="http://www.w3.org/2000/svg" xml:space="preserve" width="29px" height="32px" version="1.1" style="shape-rendering:geometricPrecision; text-rendering:geometricPrecision; image-rendering:optimizeQuality; fill-rule:evenodd; clip-rule:evenodd"
viewBox="0 0 29 32"
 xmlns:xlink="http://www.w3.org/1999/xlink">
 <defs>
  <style type="text/css">
   <![CDATA[
    .fil1 {fill:#101219;fill-rule:nonzero}
    .fil3 {fill:#5DF6F6;fill-rule:nonzero}
    .fil0 {fill:#7E93AF;fill-rule:nonzero}
    .fil2 {fill:#94A5C9;fill-rule:nonzero}
    .fil5 {fill:#BECFE8;fill-rule:nonzero}
    .fil4 {fill:#C6FFFC;fill-rule:nonzero}
   ]]>
  </style>
 </defs>
 <g id="Layer_x0020_1">
  <metadata id="CorelCorpID_0Corel-Layer"/>
  <g id="_279166496">
   <g>
    <path class="fil0" d="M9 21c0,0 0,0 0,1l0 6c0,0 0,0 0,0 -1,0 -1,0 -1,0l0 -6c0,-1 0,-1 1,-1z"/>
    <path class="fil1" d="M9 28c-1,0 -1,0 -1,0l0 -6c0,0 0,0 1,0 0,0 0,0 0,0l0 6c0,0 0,0 0,0zm0 1l0 0c0,0 1,-1 1,-1l0 -6c0,-1 -1,-1 -1,-1 -1,0 -2,0 -2,1l0 6c0,0 1,1 2,1z"/>
   </g>
   <path class="fil0" d="M21 21c0,0 0,0 0,1l0 6c0,0 0,0 0,0 -1,0 -1,0 -1,0l0 -6c0,-1 0,-1 1,-1z"/>
   <path class="fil1" d="M21 28c-1,0 -1,0 -1,0l0 -6c0,0 0,0 1,0 0,0 0,0 0,0l0 6c0,0 0,0 0,0zm0 1l0 0c0,0 1,-1 1,-1l0 -6c0,-1 -1,-1 -1,-1 -1,0 -2,0 -2,1l0 6c0,0 1,1 2,1z"/>
   <g>
    <g>
     <path class="fil2" d="M25 4c1,0 2,1 2,1 1,1 1,1 1,2 0,13 -4,18 -5,19 -1,0 -1,0 -1,0 0,0 -1,0 -1,0l0 -13c0,-1 0,-1 -1,-2 0,0 0,0 0,0l-3 0c0,0 0,0 0,0l0 -3c0,0 0,0 0,0l2 0c1,0 1,0 1,-1 1,0 1,0 1,-1l0 -1c0,0 1,-1 1,-1l3 0z"/>
     <path class="fil1" d="M22 26c0,0 0,0 0,0l0 -13c0,-1 -1,-2 -1,-2 -1,0 -1,0 -1,0l-3 0 0 -3 2 0c1,0 1,0 1,0 1,0 2,-1 2,-2l0 -1c0,0 0,0 0,0l3 0c1,0 2,1 2,2 0,13 -3,17 -5,19 0,0 0,0 0,0zm0 1l0 0c0,0 1,0 1,-1 1,-1 5,-6 5,-19 0,-1 0,-2 -1,-2 0,-1 -1,-1 -2,-1l-3 0c-1,0 -1,1 -1,1l0 1c0,0 -1,1 -1,1 0,0 0,0 -1,0l-2 0c0,0 -1,1 -1,1l0 3c0,0 1,1 1,1l3 0c0,0 0,0 0,0 1,0 1,0 1,1l0 13c0,0 0,1 1,1z"/>
    </g>
    <g>
     <path class="fil2" d="M7 4c0,0 1,1 1,1l0 1c0,1 0,1 1,1 0,1 0,1 1,1l2 0c0,0 0,0 0,0l0 3c0,0 0,0 0,0l-3 0c0,0 0,0 0,0 -1,1 -1,1 -1,2l0 13c0,0 -1,0 -1,0 0,0 0,0 -1,0 -1,-1 -5,-6 -5,-19 0,-1 0,-1 1,-2 0,0 1,-1 2,-1l3 0z"/>
     <path class="fil1" d="M7 26c0,0 0,0 0,0 -2,-2 -5,-6 -5,-19 0,-1 1,-2 2,-2l3 0c0,0 0,0 0,0l0 1c0,1 1,2 2,2 0,0 0,0 1,0l2 0 0 3 -3 0c0,0 0,0 -1,0 0,0 -1,1 -1,2l0 13c0,0 0,0 0,0zm0 1l0 0c0,0 0,0 0,0 1,0 1,-1 1,-1l0 -13c0,-1 0,-1 1,-1 0,0 0,0 0,0l3 0c0,0 1,-1 1,-1l0 -3c0,0 -1,-1 -1,-1l-2 0c-1,0 -1,0 -1,0 0,0 -1,-1 -1,-1l0 -1c0,0 0,-1 -1,-1l-3 0c-1,0 -2,0 -2,1 -1,0 -1,1 -1,2 0,13 4,18 5,19 0,1 1,1 1,1z"/>
    </g>
    <path class="fil0" d="M20 11l-3 0 0 -3 2 0c1,0 1,0 1,0 0,1 1,2 1,3 -1,0 -1,0 -1,0z"/>
    <path class="fil0" d="M8 11c0,-1 1,-2 1,-3 0,0 0,0 1,0l2 0 0 3 -3 0c0,0 0,0 -1,0z"/>
   </g>
   <path class="fil2" d="M12 5c0,0 0,0 0,1 1,0 2,0 2,0 1,0 2,0 3,0 0,-1 0,-1 0,-1 0,0 0,0 0,0 2,1 3,3 3,7 0,6 -4,11 -6,11 0,0 -2,-2 -3,-3 0,-2 -2,-4 -2,-8 0,-4 1,-6 3,-7 0,0 0,0 0,0z"/>
   <path class="fil1" d="M14 23c-1,0 -4,-5 -4,-11 0,-4 1,-5 2,-6 1,1 2,1 2,1 1,0 2,0 3,-1 1,1 2,2 2,6 0,6 -3,11 -5,11zm0 1l0 0c2,0 4,-3 4,-4 1,-1 2,-4 2,-8 0,-2 0,-3 -1,-5 0,-1 -1,-2 -2,-2 0,0 0,0 0,0 0,0 -1,0 -1,0 0,1 -1,1 -2,1 0,0 -1,0 -1,-1 0,0 -1,0 -1,0 0,0 0,0 0,0 -1,0 -2,1 -2,2 -1,2 -1,3 -1,5 0,4 1,7 2,8 0,1 1,2 2,3 0,0 1,1 1,1z"/>
   <path class="fil0" d="M12 15c0,1 1,1 2,1 2,0 3,0 3,-1 1,-1 1,-2 1,-3 0,-1 0,-2 -1,-3 0,-1 -1,-1 -3,-1 -1,0 -2,0 -2,1 -1,1 -1,2 -1,3 0,1 0,2 1,3z"/>
   <path class="fil3" d="M14 9c2,0 3,1 3,3 0,2 -1,3 -3,3 -1,0 -2,-1 -2,-3 0,-2 1,-3 2,-3z"/>
   <path class="fil1" d="M14 15c-1,0 -2,-1 -2,-3 0,-1 1,-3 2,-3 2,0 3,2 3,3 0,2 -1,3 -3,3zm0 1l0 0c1,0 2,-1 3,-1 0,-1 1,-2 1,-3 0,-1 -1,-2 -1,-3 -1,0 -2,-1 -3,-1 0,0 -1,1 -2,1 0,1 -1,2 -1,3 0,1 1,2 1,3 1,0 2,1 2,1z"/>
   <path class="fil4" d="M14 13c0,0 0,1 0,1 -1,0 -1,-1 -1,-1l0 -2c0,0 0,-1 1,-1 0,0 0,1 0,1l0 2z"/>
   <path class="fil1" d="M7 17c1,0 1,0 1,0 0,0 0,1 -1,1l0 0c-1,0 -1,-1 -1,-1 0,0 0,0 1,0l0 0z"/>
   <path class="fil1" d="M7 18c1,0 1,0 1,0 0,1 0,1 -1,1l0 0c-1,0 -1,0 -1,-1 0,0 0,0 1,0l0 0z"/>
   <path class="fil1" d="M7 19c1,0 1,0 1,1 0,0 0,0 -1,0l0 0c-1,0 -1,0 -1,0 0,-1 0,-1 1,-1l0 0z"/>
   <path class="fil1" d="M22 17c1,0 1,0 1,0 0,0 0,1 -1,1l0 0c-1,0 -1,-1 -1,-1 0,0 0,0 1,0l0 0z"/>
   <path class="fil1" d="M22 18c1,0 1,0 1,0 0,1 0,1 -1,1l0 0c-1,0 -1,0 -1,-1 0,0 0,0 1,0l0 0z"/>
   <path class="fil1" d="M22 19c1,0 1,0 1,1 0,0 0,0 -1,0l0 0c-1,0 -1,0 -1,0 0,-1 0,-1 1,-1l0 0z"/>
   <polygon class="fil2" points="14,15 14,23 "/>
   <polygon class="fil1" points="15,15 15,23 14,23 14,15 "/>
   <path class="fil1" d="M22 7c-1,0 -1,0 -1,-1 0,0 0,0 1,0l5 0c1,0 1,0 1,0 0,1 0,1 -1,1l-5 0z"/>
   <path class="fil1" d="M2 7c-1,0 -1,0 -1,-1 0,0 0,0 1,0l5 0c1,0 1,0 1,0 0,1 0,1 -1,1l-5 0z"/>
   <polygon class="fil5" points="5,4 5,3 "/>
   <path class="fil1" d="M3 6c0,0 0,0 0,0 0,0 0,0 1,0 0,1 0,2 0,2 0,3 0,7 1,9 0,1 0,1 -1,1 0,0 0,0 0,0 -1,-3 -1,-7 -1,-10 0,0 0,-1 0,-2z"/>
   <path class="fil1" d="M25 6c1,0 1,0 1,0 0,0 0,0 0,0 0,1 0,2 0,2 0,3 0,7 -1,10 0,0 0,0 0,0 -1,0 -1,0 -1,-1 1,-2 1,-6 1,-9 0,0 0,-1 0,-2z"/>
  </g>
 </g>
</svg>
