<?xml version="1.0" encoding="UTF-8"?>
<!DOCTYPE svg PUBLIC "-//W3C//DTD SVG 1.1//EN" "http://www.w3.org/Graphics/SVG/1.1/DTD/svg11.dtd">
<!-- Creator: CorelDRAW Home & Student X7 -->
<svg xmlns="http://www.w3.org/2000/svg" xml:space="preserve" width="29px" height="32px" version="1.1" style="shape-rendering:geometricPrecision; text-rendering:geometricPrecision; image-rendering:optimizeQuality; fill-rule:evenodd; clip-rule:evenodd"
viewBox="0 0 29 32"
 xmlns:xlink="http://www.w3.org/1999/xlink">
 <defs>
  <style type="text/css">
   <![CDATA[
    .fil1 {fill:#101219;fill-rule:nonzero}
    .fil3 {fill:#5DF6F6;fill-rule:nonzero}
    .fil0 {fill:#7E93AF;fill-rule:nonzero}
    .fil2 {fill:#94A5C9;fill-rule:nonzero}
    .fil5 {fill:#C1D2EE;fill-rule:nonzero}
    .fil4 {fill:#C6FFFC;fill-rule:nonzero}
   ]]>
  </style>
 </defs>
 <g id="Layer_x0020_1">
  <metadata id="CorelCorpID_0Corel-Layer"/>
  <g id="_471962176">
   <path class="fil0" d="M7 10c-1,0 -1,0 -1,0l0 -5c0,-1 0,-1 1,-1 0,0 1,0 1,1l0 5c0,0 -1,0 -1,0z"/>
   <path class="fil1" d="M7 4c0,0 0,0 0,1l0 5c0,0 0,0 0,0 0,0 -1,0 -1,0l0 -5c0,-1 1,-1 1,-1zm0 -1l0 0c-1,0 -2,1 -2,2l0 5c0,0 1,1 2,1 0,0 1,-1 1,-1l0 -5c0,-1 -1,-2 -1,-2z"/>
   <path class="fil0" d="M10 8c0,0 -1,-1 -1,-1l0 -5c0,-1 1,-1 1,-1 1,0 1,0 1,1l0 5c0,0 0,1 -1,1z"/>
   <path class="fil1" d="M10 1c0,0 0,1 0,1l0 5c0,0 0,0 0,0 0,0 0,0 0,0l0 -5c0,0 0,-1 0,-1zm0 -1l0 0c-1,0 -1,1 -1,2l0 5c0,0 0,1 1,1 1,0 1,-1 1,-1l0 -5c0,-1 0,-2 -1,-2z"/>
   <path class="fil0" d="M22 10c-1,0 -1,0 -1,0l0 -5c0,-1 0,-1 1,-1 0,0 0,0 0,1l0 5c0,0 0,0 0,0z"/>
   <path class="fil1" d="M22 4c0,0 0,0 0,1l0 5c0,0 0,0 0,0 -1,0 -1,0 -1,0l0 -5c0,-1 0,-1 1,-1zm0 -1l0 0c-1,0 -2,1 -2,2l0 5c0,0 1,1 2,1 0,0 1,-1 1,-1l0 -5c0,-1 -1,-2 -1,-2z"/>
   <path class="fil0" d="M18 8c0,0 -1,-1 -1,-1l0 -5c0,-1 1,-1 1,-1 1,0 1,0 1,1l0 5c0,0 0,1 -1,1z"/>
   <path class="fil1" d="M18 1c0,0 1,1 1,1l0 5c0,0 -1,0 -1,0 0,0 0,0 0,0l0 -5c0,0 0,-1 0,-1zm0 -1l0 0c0,0 -1,1 -1,2l0 5c0,0 1,1 1,1 1,0 2,-1 2,-1l0 -5c0,-1 -1,-2 -2,-2z"/>
   <path class="fil2" d="M14 30c-1,0 -2,-1 -3,-1 -2,-1 -5,-2 -6,-4 -2,-2 -2,-5 -2,-7 0,-5 2,-9 6,-11 1,-1 3,-1 5,-1 3,0 5,0 6,1 4,2 6,6 6,11 0,2 0,5 -2,7 -1,2 -4,3 -6,4 -1,0 -2,1 -4,1zm0 -22l0 0c-1,0 -3,1 -4,1 -3,2 -5,5 -5,9 0,4 3,7 6,9 1,0 2,0 3,0 2,0 3,0 4,0 3,-2 6,-5 6,-9 0,-4 -2,-7 -5,-9 -1,0 -3,-1 -5,-1z"/>
   <path class="fil1" d="M14 6c3,0 5,1 6,2 4,2 6,5 6,10 0,5 -3,9 -8,11 -1,0 -2,0 -4,0 -1,0 -2,0 -3,0 -5,-2 -8,-6 -8,-11 0,-5 2,-8 6,-10 1,-1 3,-2 5,-2zm0 22l0 0c2,0 3,-1 4,-1 4,-1 6,-5 6,-9 0,-4 -2,-7 -5,-9 -1,-1 -3,-1 -5,-1 -1,0 -3,0 -4,1 -3,2 -5,5 -5,9 0,4 2,8 6,9 1,0 2,1 3,1zm0 -23l0 0c-2,0 -4,1 -6,2 -2,1 -3,2 -4,4 -1,2 -2,4 -2,7 0,2 1,5 3,7 1,2 3,4 6,5 1,0 2,0 3,0 2,0 3,0 4,0 3,-1 5,-3 6,-5 2,-2 3,-5 3,-7 0,-3 -1,-5 -2,-7 -1,-2 -2,-3 -4,-4 -2,-1 -4,-2 -7,-2zm0 22l0 0c-1,0 -2,-1 -2,-1 -4,-1 -6,-5 -6,-8 0,-4 1,-7 4,-8 1,-1 3,-1 4,-1 2,0 4,0 5,1 3,1 4,4 4,8 0,3 -2,7 -6,8 0,0 -1,1 -3,1z"/>
   <path class="fil0" d="M18 29c-1,0 -2,0 -4,0 -1,0 -2,0 -3,0 0,-1 0,-1 0,-2 1,0 2,1 3,1 2,0 3,-1 4,-1 0,1 0,1 0,2z"/>
   <path class="fil0" d="M20 8c0,0 0,0 0,0 0,0 0,0 -1,1 -1,-1 -3,-1 -5,-1 -1,0 -3,0 -4,1 -1,-1 -1,-1 -1,-1 0,0 0,0 0,0 1,-1 3,-2 5,-2 3,0 5,1 6,2z"/>
   <path class="fil2" d="M14 25c-1,0 -2,0 -3,0 -3,-2 -4,-4 -4,-7 0,-3 1,-5 3,-7 1,-1 3,-1 4,-1 2,0 4,0 5,1 2,2 3,4 3,7 0,3 -1,5 -4,7 -1,0 -2,0 -4,0zm0 -12l0 0c-1,0 -2,1 -3,2 0,1 -1,2 -1,3 0,1 1,2 2,3 0,0 1,1 2,1 2,0 3,-1 3,-1 1,-1 2,-2 2,-3 0,-1 -1,-2 -1,-3 -1,-1 -2,-2 -4,-2z"/>
   <path class="fil1" d="M14 10c2,0 3,1 5,2 2,1 3,3 3,6 0,2 -2,5 -4,6 -1,1 -2,1 -4,1 -1,0 -2,0 -3,-1 -2,-1 -4,-4 -4,-6 0,-3 1,-5 3,-6 2,-1 3,-2 4,-2zm0 12l0 0c2,0 3,0 4,-1 1,-1 1,-2 1,-3 0,-2 0,-3 -1,-3 -1,-2 -2,-2 -4,-2 -1,0 -2,0 -3,2 -1,0 -1,1 -1,3 0,1 0,2 1,3 1,1 2,1 3,1zm0 -13l0 0c-1,0 -3,1 -4,2 -2,1 -4,4 -4,7 0,1 1,3 2,4 0,1 1,2 3,3 1,1 2,1 3,1 2,0 3,0 4,-1 2,-1 3,-2 3,-3 1,-1 2,-3 2,-4 0,-3 -2,-6 -4,-7 -1,-1 -3,-2 -5,-2zm0 12l0 0c0,0 -1,0 -2,-1 -1,0 -1,-1 -1,-2 0,-1 0,-2 1,-3 0,-1 1,-1 2,-1 2,0 3,0 3,1 1,1 1,2 1,3 0,1 0,2 -1,2 -1,1 -2,1 -3,1z"/>
   <path class="fil0" d="M11 21c1,1 2,1 3,1 2,0 3,0 4,-1 0,1 0,2 0,3 -1,1 -2,1 -4,1 -1,0 -2,0 -3,-1 0,-1 0,-2 0,-3z"/>
   <path class="fil0" d="M19 12c0,0 -1,1 -1,3 -1,-2 -2,-2 -4,-2 -1,0 -2,0 -3,2 0,-2 -1,-3 -1,-3 2,-1 3,-2 4,-2 2,0 3,1 5,2z"/>
   <path class="fil2" d="M14 31c0,0 -1,-1 -1,-1 0,0 -1,-1 -1,-1 1,-4 1,-17 -2,-22 0,0 0,0 0,-1 0,0 1,0 1,0l7 0c0,0 1,0 1,0 0,1 0,1 0,1 -3,5 -3,18 -2,22 0,0 -1,1 -1,1 0,0 -1,1 -2,1z"/>
   <path class="fil1" d="M18 6c0,0 1,1 1,1 -3,4 -3,17 -3,22 0,0 -1,1 -2,1 0,0 -1,-1 -1,-1 0,-5 0,-18 -3,-22 0,0 1,-1 1,-1l7 0zm0 -1l0 0 -7 0c0,0 -1,0 -1,1 -1,0 -1,1 0,2 0,1 2,3 2,10 0,4 0,8 0,11 0,0 0,1 1,1 0,1 1,1 1,1 1,0 2,0 2,-1 1,0 1,-1 1,-1 0,-3 0,-7 0,-11 0,-7 2,-9 2,-10 1,-1 1,-2 0,-2 0,-1 -1,-1 -1,-1z"/>
   <path class="fil3" d="M13 23c0,0 -1,-1 -1,-1l0 -3c0,0 0,-1 0,-1l1 -1c0,0 1,0 1,0l1 0c0,0 1,0 1,0l1 1c0,0 0,1 0,1l0 3c0,0 -1,1 -1,1l-3 0z"/>
   <path class="fil1" d="M15 17c0,0 0,1 1,1l0 1c0,0 0,0 0,0l0 3c0,0 0,0 0,0l-3 0c0,0 0,0 0,0l0 -3c0,0 0,0 0,0l0 -1c1,0 1,-1 1,-1l1 0zm0 -1l0 0 -1 0c-1,0 -1,1 -1,1l-1 1c0,0 0,1 0,1l0 3c0,1 0,1 1,1l3 0c1,0 1,0 1,-1l0 -3c0,0 0,-1 0,-1l-1 -1c0,0 0,-1 -1,-1z"/>
   <path class="fil4" d="M14 19c0,0 1,0 1,0 0,0 0,0 0,0l0 2c0,0 0,0 0,0 0,0 -1,0 -1,0l0 -2z"/>
   <path class="fil5" d="M14 24c0,0 1,0 1,0 0,0 0,0 0,0l0 3c0,1 0,1 0,1 0,0 -1,0 -1,-1l0 -3z"/>
   <g>
    <path class="fil1" d="M17 8c0,0 -1,1 -1,1 0,0 0,-1 0,-1l0 0c0,-1 0,-1 0,-1 0,0 1,0 1,1l0 0z"/>
    <path class="fil1" d="M15 8c0,0 0,1 0,1 -1,0 -1,-1 -1,-1l0 0c0,-1 0,-1 1,-1 0,0 0,0 0,1l0 0z"/>
    <path class="fil1" d="M13 8c0,0 0,1 0,1 0,0 -1,-1 -1,-1l0 0c0,-1 1,-1 1,-1 0,0 0,0 0,1l0 0z"/>
   </g>
  </g>
 </g>
</svg>
