<?xml version="1.0" encoding="UTF-8"?>
<!DOCTYPE svg PUBLIC "-//W3C//DTD SVG 1.1//EN" "http://www.w3.org/Graphics/SVG/1.1/DTD/svg11.dtd">
<!-- Creator: CorelDRAW Home & Student X7 -->
<svg xmlns="http://www.w3.org/2000/svg" xml:space="preserve" width="29px" height="32px" version="1.1" style="shape-rendering:geometricPrecision; text-rendering:geometricPrecision; image-rendering:optimizeQuality; fill-rule:evenodd; clip-rule:evenodd"
viewBox="0 0 29 32"
 xmlns:xlink="http://www.w3.org/1999/xlink">
 <defs>
  <style type="text/css">
   <![CDATA[
    .fil6 {fill:#101219}
    .fil0 {fill:#101219;fill-rule:nonzero}
    .fil4 {fill:#5DF6F6;fill-rule:nonzero}
    .fil1 {fill:#7E93AF;fill-rule:nonzero}
    .fil2 {fill:#94A5C9;fill-rule:nonzero}
    .fil3 {fill:#BECFE8;fill-rule:nonzero}
    .fil5 {fill:#C6FFFC;fill-rule:nonzero}
   ]]>
  </style>
 </defs>
 <g id="Layer_x0020_1">
  <metadata id="CorelCorpID_0Corel-Layer"/>
  <g id="_473833640">
   <path class="fil0" d="M9 18l0 2c0,0 1,0 1,0 0,0 0,0 0,0l0 -1 9 0 0 1c0,0 0,0 0,0 0,0 1,0 1,0l0 -2c0,0 0,0 0,0 0,0 0,0 0,0 0,0 -1,0 -1,0l-9 0c0,0 -1,0 -1,0 0,0 0,0 0,0z"/>
   <path class="fil1" d="M10 19c-1,0 -1,1 -1,1l0 3c0,0 0,0 1,0 0,0 1,0 1,0l0 -3c0,0 -1,-1 -1,-1z"/>
   <path class="fil0" d="M10 23c0,0 0,0 0,0l0 -3c0,0 0,0 0,0 0,0 0,0 0,0l0 3c0,0 0,0 0,0zm0 1l0 0c-1,0 -1,-1 -1,-1l0 -3c0,0 0,-1 1,-1 1,0 1,1 1,1l0 3c0,0 0,1 -1,1z"/>
   <path class="fil1" d="M19 19c0,0 -1,1 -1,1l0 3c0,0 1,0 1,0 1,0 1,0 1,0l0 -3c0,0 0,-1 -1,-1z"/>
   <path class="fil0" d="M19 23c0,0 0,0 0,0l0 -3c0,0 0,0 0,0 0,0 0,0 0,0l0 3c0,0 0,0 0,0zm0 1l0 0c-1,0 -1,-1 -1,-1l0 -3c0,0 0,-1 1,-1 1,0 1,1 1,1l0 3c0,0 0,1 -1,1z"/>
   <path class="fil1" d="M14 1c-1,0 -2,1 -2,2l0 5c0,1 1,2 2,2 2,0 3,-1 3,-2l0 -5c0,-1 -1,-2 -3,-2z"/>
   <path class="fil0" d="M14 10c1,0 2,-1 2,-2l0 -5c0,-1 -1,-2 -2,-2l0 0c0,0 -1,1 -1,2l0 5c0,1 1,2 1,2l0 0zm0 1l0 0c-1,0 -2,-1 -2,-3l0 -5c0,-2 1,-3 2,-3 2,0 3,1 3,3l0 5c0,2 -1,3 -3,3z"/>
   <path class="fil2" d="M14 8c-3,0 -5,1 -7,2 -1,1 -2,2 -2,2 0,1 1,2 2,3 3,1 4,3 5,5l1 10c0,1 1,1 1,1 1,0 2,0 2,-1l1 -10c1,-2 2,-4 5,-5 1,-1 2,-2 2,-3 0,0 -1,-1 -2,-2 -2,-1 -4,-2 -8,-2z"/>
   <path class="fil0" d="M14 31c1,0 1,0 1,-1l1 -2 1 -8c0,-2 2,-5 5,-6 1,0 1,-1 1,-2 0,0 0,-1 -1,-1 -2,-1 -4,-2 -8,-2 -3,0 -5,1 -7,2 -1,0 -1,1 -1,1l0 0c0,1 0,2 1,2 3,1 5,4 5,6l2 10c0,1 0,1 0,1l0 0zm0 1l0 0c0,0 -1,-1 -1,-2l-2 -9c0,-3 -2,-5 -4,-6 -1,0 -2,-1 -2,-3 0,-1 1,-2 1,-2 3,-2 5,-2 8,-2 4,0 6,0 9,2 0,0 1,1 1,2 0,2 -1,3 -2,3 -2,1 -4,3 -4,6l-2 7 0 2c0,1 -1,2 -2,2z"/>
   <path class="fil1" d="M17 16c-1,1 -2,1 -3,1 0,0 -1,0 -2,-1 -1,-1 -1,-2 -1,-3 0,-1 0,-2 1,-2 1,-1 2,-2 2,-2 1,0 2,1 3,2 1,0 1,1 1,2 0,1 0,2 -1,3z"/>
   <polygon class="fil3" points="12,22 13,22 "/>
   <polygon class="fil0" points="12,22 13,22 13,22 12,22 "/>
   <polygon class="fil3" points="13,23 13,23 "/>
   <polygon class="fil0" points="13,23 13,23 13,23 13,23 "/>
   <polygon class="fil3" points="13,24 13,24 "/>
   <polygon class="fil0" points="13,25 13,25 13,24 13,24 "/>
   <path class="fil2" d="M15 3c-3,0 -6,0 -8,2 0,0 0,0 0,0 0,0 -1,0 -1,0l0 4c0,0 1,0 1,0 0,0 0,0 0,0 0,0 0,0 0,0 0,0 0,0 0,0 2,-1 5,-2 8,-2 2,0 5,1 7,2 0,0 0,0 0,0 0,0 0,0 0,0 0,0 1,0 1,-1l0 -3c0,0 -1,0 -1,0 -2,-2 -4,-2 -7,-2z"/>
   <path class="fil0" d="M7 9c0,0 0,0 0,0 2,-2 4,-2 8,-2 3,0 5,0 7,1l0 -3c-2,-1 -4,-2 -7,-2 -4,0 -6,1 -8,2 0,0 0,0 0,0l0 4zm0 0l0 0c0,0 0,0 0,0 -1,0 -1,0 -1,0l0 -4c0,0 0,0 0,-1 0,0 0,0 0,0 3,-1 5,-2 9,-2 3,0 5,1 8,2 0,1 0,1 0,1l0 3c0,1 0,1 0,1 -1,0 -1,0 -1,0 0,0 0,0 0,0 -2,-1 -5,-2 -7,-2 -3,0 -6,1 -8,2 0,0 0,0 0,0 0,0 0,0 0,0z"/>
   <path class="fil4" d="M14 10c-1,0 -2,2 -2,3 0,2 1,3 2,3 2,0 3,-1 3,-3 0,-1 -1,-3 -3,-3z"/>
   <path class="fil0" d="M14 15c2,0 2,-1 2,-2 0,-1 0,-2 -2,-2 -1,0 -1,1 -1,2 0,1 0,2 1,2zm0 1l0 0c0,0 -1,0 -1,-1 -1,0 -1,-1 -1,-2 0,-1 0,-1 1,-2 0,-1 1,-1 1,-1 1,0 2,0 2,1 1,1 1,1 1,2 0,1 0,2 -1,2 0,1 -1,1 -2,1z"/>
   <path class="fil5" d="M15 14c0,0 0,0 0,0 1,0 1,0 1,0l0 -2c0,0 0,0 -1,0 0,0 0,0 0,0l0 2z"/>
   <polygon class="fil3" points="18,5 18,5 "/>
   <polygon class="fil0" points="17,5 17,5 18,5 18,5 "/>
   <polygon class="fil3" points="19,5 19,6 "/>
   <polygon class="fil0" points="18,5 18,6 19,6 19,5 "/>
   <polygon class="fil3" points="20,6 20,6 "/>
   <polygon class="fil0" points="19,6 19,6 20,6 20,6 "/>
   <polygon class="fil3" points="11,5 11,5 "/>
   <polygon class="fil0" points="11,5 11,5 12,5 12,5 "/>
   <polygon class="fil3" points="10,5 10,6 "/>
   <polygon class="fil0" points="10,5 10,6 11,6 11,5 "/>
   <polygon class="fil3" points="9,6 9,6 "/>
   <polygon class="fil0" points="9,6 9,6 10,6 10,6 "/>
   <polygon class="fil3" points="14,3 14,1 "/>
   <polygon class="fil0" points="15,3 15,1 14,1 14,3 "/>
   <path class="fil0" d="M13 25c1,0 1,-1 1,-1 0,0 0,0 -1,0l0 0c0,0 -1,0 -1,0 0,0 1,1 1,1l0 0z"/>
   <path class="fil0" d="M13 23c0,0 1,0 1,0 0,0 -1,0 -1,0l0 0c-1,0 -1,0 -1,0 0,0 0,0 1,0l0 0z"/>
   <path class="fil0" d="M13 22c0,0 0,0 0,0 0,0 0,-1 0,-1l-1 0c0,0 0,1 0,1 0,0 0,0 0,0l1 0z"/>
   <path class="fil0" d="M17 5c0,0 0,0 1,0 0,0 0,0 0,0l0 0c0,1 0,1 0,1 -1,0 -1,0 -1,-1l0 0z"/>
   <path class="fil0" d="M18 5c0,0 0,0 1,0 0,0 0,0 0,0l0 1c0,0 0,0 0,0 -1,0 -1,0 -1,0l0 -1z"/>
   <path class="fil0" d="M19 6c0,-1 0,-1 1,-1 0,0 0,0 0,1l0 0c0,0 0,0 0,0 -1,0 -1,0 -1,0l0 0z"/>
   <path class="fil0" d="M12 5c0,0 0,0 -1,0 0,0 0,0 0,0l0 0c0,1 0,1 0,1 1,0 1,0 1,-1l0 0z"/>
   <path class="fil0" d="M11 5c0,0 0,0 -1,0 0,0 0,0 0,0l0 1c0,0 0,0 0,0 1,0 1,0 1,0l0 -1z"/>
   <path class="fil0" d="M10 6c0,-1 0,-1 -1,-1 0,0 0,0 0,1l0 0c0,0 0,0 0,0 1,0 1,0 1,0l0 0z"/>
   <rect class="fil6" x="14" y="16" width="0.843965" height="3.40047"/>
  </g>
 </g>
</svg>
