<?xml version="1.0" encoding="UTF-8"?>
<!DOCTYPE svg PUBLIC "-//W3C//DTD SVG 1.1//EN" "http://www.w3.org/Graphics/SVG/1.1/DTD/svg11.dtd">
<!-- Creator: CorelDRAW Home & Student X7 -->
<svg xmlns="http://www.w3.org/2000/svg" xml:space="preserve" width="29px" height="32px" version="1.1" style="shape-rendering:geometricPrecision; text-rendering:geometricPrecision; image-rendering:optimizeQuality; fill-rule:evenodd; clip-rule:evenodd"
viewBox="0 0 29 32"
 xmlns:xlink="http://www.w3.org/1999/xlink">
 <defs>
  <style type="text/css">
   <![CDATA[
    .fil1 {fill:#101219;fill-rule:nonzero}
    .fil3 {fill:#5DF6F6;fill-rule:nonzero}
    .fil0 {fill:#7E93AF;fill-rule:nonzero}
    .fil2 {fill:#94A5C9;fill-rule:nonzero}
    .fil4 {fill:#C6FFFC;fill-rule:nonzero}
   ]]>
  </style>
 </defs>
 <g id="Layer_x0020_1">
  <metadata id="CorelCorpID_0Corel-Layer"/>
  <g id="_399633256">
   <path class="fil0" d="M19 22c-1,0 -1,0 -1,1l0 4c0,1 0,1 1,1 0,0 0,0 0,-1l0 -4c0,-1 0,-1 0,-1z"/>
   <path class="fil1" d="M19 28c0,0 0,0 0,-1l0 -4c0,0 0,-1 0,-1 -1,0 -1,1 -1,1l0 4c0,1 0,1 1,1zm0 1l0 0c-1,0 -2,-1 -2,-2l0 -4c0,-1 1,-1 2,-1 0,0 1,0 1,1l0 4c0,1 -1,2 -1,2z"/>
   <path class="fil0" d="M22 17c-1,0 -1,0 -1,0l0 5c0,0 0,1 1,1 0,0 0,-1 0,-1l0 -5c0,0 0,0 0,0z"/>
   <path class="fil1" d="M22 22c0,0 0,0 0,0l0 -5c0,0 0,0 0,0 -1,0 -1,0 -1,0l0 5c0,0 0,0 1,0zm0 1l0 0c-1,0 -2,0 -2,-1l0 -5c0,0 1,-1 2,-1 0,0 1,1 1,1l0 5c0,1 -1,1 -1,1z"/>
   <path class="fil0" d="M10 22c0,0 0,0 0,1l0 4c0,1 0,1 0,1 1,0 1,0 1,-1l0 -4c0,-1 0,-1 -1,-1z"/>
   <path class="fil1" d="M10 28c1,0 1,0 1,-1l0 -4c0,0 0,-1 -1,-1 0,0 0,1 0,1l0 4c0,1 0,1 0,1zm0 1l0 0c0,0 -1,-1 -1,-2l0 -4c0,-1 1,-1 1,-1 1,0 2,0 2,1l0 4c0,1 -1,2 -2,2z"/>
   <path class="fil0" d="M7 17c0,0 0,0 0,0l0 5c0,0 0,1 0,1 1,0 1,-1 1,-1l0 -5c0,0 0,0 -1,0z"/>
   <path class="fil1" d="M7 22c1,0 1,0 1,0l0 -5c0,0 0,0 -1,0 0,0 0,0 0,0l0 5c0,0 0,0 0,0zm0 1l0 0c0,0 -1,0 -1,-1l0 -5c0,0 1,-1 1,-1 1,0 2,1 2,1l0 5c0,1 -1,1 -2,1z"/>
   <path class="fil2" d="M12 1c-1,0 -2,0 -2,1 -2,2 -2,4 -2,6 0,2 0,3 0,3 0,0 0,0 1,0l3 0c0,0 0,0 0,0 0,0 1,0 1,0l-1 -7 0 -3c0,0 0,0 0,0 0,0 0,0 0,0z"/>
   <path class="fil1" d="M12 11l0 -7 0 -3c0,0 0,0 0,0 0,0 0,0 0,0 -1,0 -1,1 -2,1 -1,2 -1,4 -1,6 -1,2 0,3 0,3l3 0zm0 1l0 0 -3 0c-1,0 -1,-1 -1,-1 0,0 0,-1 0,-3 0,-2 0,-4 1,-6 1,-1 2,-2 3,-2 0,0 0,0 1,1 0,0 0,0 0,0l0 3 0 7c0,0 0,0 0,0 0,0 -1,1 -1,1z"/>
   <path class="fil2" d="M17 1c0,0 0,0 0,0 0,0 0,0 0,0l0 3 -1 7c0,0 1,0 1,0 0,0 0,0 0,0l3 0c1,0 1,0 1,0 0,0 0,-1 0,-3 0,-2 0,-4 -2,-6 0,-1 -1,-1 -2,-1z"/>
   <path class="fil1" d="M20 11c0,0 1,-1 0,-3 0,-2 0,-4 -1,-6 -1,0 -1,-1 -2,-1 0,0 0,0 0,0 0,0 0,0 0,0l0 3 0 7 3 0zm0 1l0 0 -3 0c0,0 -1,-1 -1,-1 0,0 0,0 0,0l0 -7 0 -3c0,0 0,0 0,0 1,-1 1,-1 1,-1 1,0 2,1 3,2 1,2 1,4 1,6 0,2 0,3 0,3 0,0 0,1 -1,1z"/>
   <path class="fil0" d="M9 11l3 0 0 -7 -1 1 -1 3 -1 0c-1,2 0,3 0,3z"/>
   <path class="fil0" d="M20 8l-1 0 -1 -3 -1 -1 0 7 3 0c0,0 1,-1 0,-3z"/>
   <path class="fil2" d="M14 3c0,0 0,1 0,1l-3 5c0,0 -1,0 -1,0l-4 1c0,0 0,0 0,0 0,8 6,18 8,21 0,0 0,0 0,0 1,0 1,0 1,0 2,-3 8,-13 8,-21 0,0 0,0 0,0l-4 -1c0,0 -1,0 -1,0l-3 -5c0,0 0,-1 -1,-1z"/>
   <path class="fil1" d="M14 31c1,0 1,0 1,-1 2,-2 8,-12 8,-20l-4 0c-1,0 -1,0 -1,-1l-2 -3 -1 -2c0,0 0,0 -1,0 0,0 0,0 0,0l-1 2 -2 3c0,1 0,1 -1,1l-4 0c0,8 6,18 8,20 0,1 0,1 0,1zm0 1l0 0c0,0 0,-1 -1,-1 -2,-3 -8,-13 -8,-21 0,0 0,-1 1,-1l4 0c0,0 0,0 0,0l2 -4 1 -1c0,-1 1,-1 1,-1 1,0 2,0 2,1l1 1 2 4c0,0 0,0 0,0l4 0c1,0 1,1 1,1 0,8 -6,18 -8,21 -1,0 -1,1 -2,1z"/>
   <path class="fil0" d="M18 16l-1 1c-1,0 -1,1 -2,1l-1 0c-1,0 -1,-1 -2,-1l-1 -1c0,0 0,-1 0,-2l0 -2c0,-2 1,-3 2,-3l3 0c1,0 2,1 2,3l0 2c0,1 0,2 0,2z"/>
   <path class="fil3" d="M13 11c0,0 -1,0 -1,1l0 2c0,1 0,1 0,1l1 1c0,0 1,0 1,0l1 0c0,0 1,0 1,0l1 -1c0,0 0,0 0,-1l0 -2c0,-1 -1,-1 -1,-1l-3 0z"/>
   <path class="fil1" d="M15 16c0,0 0,0 1,0l0 -1c0,0 0,0 0,-1l0 -2c0,-1 0,-1 0,-1l-3 0c0,0 0,0 0,1l0 2c0,1 0,1 0,1l0 1c1,0 1,0 1,0l1 0zm0 1l0 0 -1 0c-1,0 -1,0 -1,-1l-1 -1c0,0 0,0 0,-1l0 -2c0,-1 0,-2 1,-2l3 0c1,0 1,1 1,2l0 2c0,1 0,1 0,1l-1 1c0,1 0,1 -1,1z"/>
   <path class="fil4" d="M14 14c0,1 1,1 1,1 0,0 0,0 0,-1l0 -2c0,0 0,0 0,0 0,0 -1,0 -1,0l0 2z"/>
   <path class="fil0" d="M14 3c0,0 0,1 0,1l-1 2c-1,0 0,0 0,0 0,0 0,1 2,1 0,0 1,0 1,-1 0,0 1,0 0,0l-1 -2c0,0 0,-1 -1,-1z"/>
   <path class="fil1" d="M15 6c0,0 0,0 1,0l-1 -2c0,0 0,0 -1,0 0,0 0,0 0,0l-1 2c0,0 1,0 2,0zm0 1l0 0c-2,0 -2,0 -3,0 0,-1 0,-1 0,-2l1 -1c0,-1 1,-1 1,-1 1,0 2,0 2,1l1 1c0,1 0,1 -1,2 0,0 -1,0 -1,0z"/>
   <g>
    <path class="fil1" d="M19 12c0,0 0,0 0,0 0,0 0,1 0,1l1 0c0,0 0,-1 0,-1 0,0 0,0 0,0l-1 0z"/>
    <path class="fil1" d="M19 13c0,0 0,0 0,1 0,0 0,0 0,0l1 0c0,0 0,0 0,0 0,-1 0,-1 0,-1l-1 0z"/>
    <path class="fil1" d="M19 15c0,0 0,0 0,0 0,0 0,1 0,1l1 0c0,0 0,-1 0,-1 0,0 0,0 0,0l-1 0z"/>
   </g>
   <g>
    <path class="fil1" d="M9 12c0,0 0,0 0,0 0,0 0,1 0,1l1 0c0,0 0,-1 0,-1 0,0 0,0 0,0l-1 0z"/>
    <path class="fil1" d="M9 13c0,0 0,0 0,1 0,0 0,0 0,0l1 0c0,0 0,0 0,0 0,-1 0,-1 0,-1l-1 0z"/>
    <path class="fil1" d="M9 15c0,0 0,0 0,0 0,0 0,1 0,1l1 0c0,0 0,-1 0,-1 0,0 0,0 0,0l-1 0z"/>
   </g>
   <path class="fil1" d="M15 1c0,-1 0,-1 0,-1 -1,0 -1,0 -1,1l0 5c0,1 0,1 1,1 0,0 0,0 0,-1l0 -5z"/>
  </g>
 </g>
</svg>
