<?xml version="1.0" encoding="UTF-8"?>
<!DOCTYPE svg PUBLIC "-//W3C//DTD SVG 1.1//EN" "http://www.w3.org/Graphics/SVG/1.1/DTD/svg11.dtd">
<!-- Creator: CorelDRAW Home & Student X7 -->
<svg xmlns="http://www.w3.org/2000/svg" xml:space="preserve" width="1574px" height="1070px" version="1.1" style="shape-rendering:geometricPrecision; text-rendering:geometricPrecision; image-rendering:optimizeQuality; fill-rule:evenodd; clip-rule:evenodd"
viewBox="0 0 1574 1070"
 xmlns:xlink="http://www.w3.org/1999/xlink">
 <defs>
  <style type="text/css">
   <![CDATA[
    .fil0 {fill:#73B243}
    .fil1 {fill:#7EB757}
    .fil2 {fill:white}
   ]]>
  </style>
 </defs>
 <g id="Layer_x0020_1">
  <metadata id="CorelCorpID_0Corel-Layer"/>
  <g id="_329857512">
   <rect class="fil0" width="1574" height="1070"/>
   <path class="fil1" d="M38 38l93 0 0 994 -93 0 0 -994zm187 0l94 0 0 994 -94 0 0 -994zm187 0l94 0 0 994 -94 0 0 -994zm188 0l93 0 0 994 -93 0 0 -994zm187 0l94 0 0 994 -94 0 0 -994zm187 0l94 0 0 994 -94 0 0 -994zm188 0l93 0 0 994 -93 0 0 -994zm187 0l94 0 0 994 -94 0 0 -994z"/>
   <path class="fil2" d="M37 34l0 1002 1500 0 0 -1002 -1500 0zm1497 15c-6,-1 -10,-5 -11,-11l11 0 0 11 0 0zm-748 608c-66,-1 -120,-56 -120,-122 0,-66 54,-120 120,-121l0 243 0 0zm4 -243c66,1 119,55 119,121 0,66 -53,121 -119,122l0 -243 0 0zm-739 -376c-1,6 -5,10 -11,11l0 -11 11 0 0 0zm-11 375l70 0 0 244 -70 0 0 -244 0 0zm74 248l0 -252 -74 0 0 -146 220 0 0 372c-1,0 -1,0 -2,1l2 3 0 170 -220 0 0 -148 74 0 0 0zm150 -223c30,23 48,59 48,97 0,38 -18,74 -48,97l0 -194zm-224 583c6,1 10,5 11,11l-11 0 0 -11 0 0zm1483 11c1,-6 5,-10 11,-11l0 11 -11 0zm11 -623l-74 0 0 252 74 0 0 148 -220 0 0 -546 220 0 0 146 0 0zm-1 4l0 244 -69 0 0 -244 69 0 0 0zm-223 -154l0 176c-32,24 -50,60 -50,100 0,39 19,77 50,100l0 178 224 0 0 204c-8,1 -14,7 -15,15l-1464 0c-1,-8 -7,-14 -15,-15l0 -204 224 0 0 -176c32,-24 51,-62 51,-102 0,-40 -19,-78 -51,-101l0 -175 -224 0 0 -206c8,-1 14,-7 15,-15l731 0 0 372c-68,1 -124,57 -124,125 0,69 56,124 124,126l0 370 4 0 0 -370c68,-2 123,-57 123,-126 0,-68 -55,-124 -123,-125l0 -372 729 0c1,8 7,14 15,15l0 206 -224 0 0 0zm0 371c-29,-23 -46,-57 -46,-95 0,-38 17,-72 46,-95l0 190z"/>
  </g>
 </g>
</svg>
